<svg
      width="100"
      height="100"
      viewBox="0 0 200 200"
      xmlns="http://www.w3.org/2000/svg"
    >
      <g
        id="SvgjsG6479"
        featurekey="hmhgWD-0"
        transform="matrix(1.5999795195763946,0,0,1.5999795195763946,-8.000119610420978,-48.39381370833759)"
        fill="#FFFFFF"
      >
        <path
          xmlns="http://www.w3.org/2000/svg"
          fill-rule="evenodd"
          clip-rule="evenodd"
          d="M88.528,59.904c-1.303,0-2.199,0.017-3.095-0.005  c-0.724-0.018-1.441-0.149-2.171-0.113c-0.236,0.012-0.387,0.07-0.535,0.266c-1.139,1.494-2.608,2.479-4.492,2.726  c-2.708,0.355-4.904-0.577-6.567-2.743c-0.158-0.207-0.313-0.31-0.575-0.29c-0.291,0.021-0.586-0.004-0.878,0.008  c-0.257,0.011-0.528-0.076-0.762,0.126c-0.052,0.044-0.167,0.02-0.253,0.02c-1.335-0.002-2.671,0.021-4.006-0.014  c-2.609-0.068-5.22-0.012-7.829-0.034c-2.188-0.02-4.377,0.014-6.565-0.016c-4.841-0.064-9.682-0.002-14.523-0.058  c-1.731-0.02-3.462-0.004-5.193-0.031c-0.203-0.003-0.329,0.062-0.45,0.226c-1.079,1.465-2.471,2.471-4.288,2.783  c-2.721,0.467-4.975-0.375-6.718-2.523c-0.186-0.229-0.379-0.326-0.652-0.326c-2.755,0.004-5.42-0.531-8.041-1.339  c-0.675-0.208-1.385-0.265-2.072-0.424c-0.704-0.164-1.403-0.351-2.1-0.541c-0.287-0.078-0.428-0.324-0.498-0.585  c-0.084-0.316-0.251-0.546-0.512-0.74c-0.306-0.227-0.319-0.349-0.023-0.581c0.364-0.287,0.411-0.634,0.351-1.051  C6.03,54.295,6.004,53.941,6,53.589c-0.007-0.614-0.347-1.107-0.565-1.646c-0.028-0.07-0.095-0.09-0.162-0.113  c-0.262-0.093-0.333-0.206-0.223-0.459c0.111-0.257,0.119-0.517,0.114-0.784c-0.043-2.185,0.989-3.828,2.603-5.182  c0.269-0.226,0.597-0.208,0.905-0.243c1.188-0.133,2.322-0.489,3.472-0.782c2.161-0.552,4.206-1.413,6.247-2.294  c2.799-1.208,5.656-2.268,8.55-3.23c1.587-0.527,3.184-1.003,4.845-1.238c1.005-0.143,2.011-0.266,3.024-0.345  c1.606-0.126,3.214-0.176,4.825-0.14c1.463,0.033,2.917,0.185,4.367,0.384c1.485,0.205,2.948,0.506,4.385,0.942  c1.016,0.308,1.933,0.818,2.855,1.317c2.929,1.583,5.742,3.349,8.45,5.285c0.126,0.09,0.253,0.126,0.406,0.128  c0.827,0.009,1.653-0.015,2.479,0.043c0.256,0.018,0.515-0.031,0.772-0.029c1.559,0.013,3.117,0.013,4.676,0.055  c1.591,0.043,3.181,0.113,4.77,0.205c1.872,0.109,3.74,0.267,5.605,0.455c3.052,0.308,6.072,0.798,9.048,1.548  c1.772,0.446,3.519,0.973,5.175,1.76c0.678,0.323,1.334,0.683,1.932,1.141c0.092,0.071,0.229,0.122,0.202,0.272  c-0.026,0.147-0.166,0.157-0.278,0.194c-0.057,0.019-0.119,0.027-0.171,0.056c-0.08,0.046-0.115,0.131-0.118,0.218  c-0.002,0.095,0.095,0.085,0.152,0.111c0.054,0.025,0.114,0.039,0.169,0.063c0.313,0.138,0.5,0.323,0.485,0.721  c-0.034,0.895-0.028,1.792-0.002,2.688c0.011,0.346-0.131,0.527-0.418,0.654c-0.071,0.031-0.191,0.028-0.185,0.146  c0.006,0.097,0.09,0.155,0.175,0.169c0.39,0.064,0.457,0.317,0.43,0.66c-0.048,0.592-0.077,1.185-0.105,1.777  c-0.008,0.161-0.084,0.208-0.229,0.205c-0.181-0.004-0.362,0.005-0.543-0.002c-0.253-0.01-0.352-0.119-0.343-0.376  c0.003-0.095,0.017-0.189,0.031-0.282c0.02-0.129,0.005-0.223-0.159-0.226c-0.136-0.002-0.211,0.04-0.208,0.19  c0.006,0.241,0.004,0.482,0.001,0.724c-0.002,0.127,0.056,0.181,0.18,0.204c0.27,0.053,0.544,0.098,0.796,0.214  c0.158,0.073,0.323,0.16,0.327,0.362c0.005,0.215-0.164,0.312-0.331,0.387c-0.366,0.165-0.763,0.209-1.156,0.246  C91.548,59.907,89.836,59.937,88.528,59.904z M90.373,50.787c-0.151-0.301-0.429-0.463-0.703-0.622  c-1.251-0.723-2.574-1.271-3.98-1.608c-0.848-0.203-1.707-0.329-2.605-0.337c2.654,0.271,5.033,1.241,7.287,2.569  c0.259,0.519,0.208,1.049,0.057,1.581c-0.069,0.244-0.243,0.367-0.494,0.38c-0.229,0.013-0.313-0.08-0.276-0.311  c0.036-0.237,0.073-0.476,0.114-0.712c0.055-0.313-0.053-0.557-0.308-0.739c-0.394-0.282-0.819-0.505-1.265-0.692  c-0.123-0.052-0.248-0.1-0.373-0.149c0.114,0.125,0.249,0.202,0.372,0.293c0.124,0.091,0.249,0.187,0.353,0.3  c0.249,0.274,0.232,0.584-0.028,0.847c-0.146,0.146-0.289,0.295-0.436,0.44c-0.082,0.081-0.12,0.143,0.026,0.202  c0.598,0.244,1.202,0.467,1.836,0.599c0.244,0.05,0.509-0.084,0.617-0.283C90.814,52.089,90.715,51.183,90.373,50.787z   M42.463,48.067c0.12-0.125,0.274-0.076,0.409-0.072c1.541,0.042,3.081,0.092,4.621,0.137c1.3,0.037,2.599,0.07,3.899,0.104  c2.065,0.053,4.132,0.1,6.197,0.163c0.253,0.008,0.295-0.071,0.245-0.291c-0.236-1.055-0.74-1.943-1.626-2.585  c-0.177-0.128-0.346-0.291-0.589-0.298c-0.551-0.017-1.102-0.052-1.652-0.048c-0.633,0.005-1.262-0.037-1.9,0.054  c-0.484,0.069-1,0.03-1.503-0.099c-0.367-0.094-0.77-0.058-1.157-0.061c-1.249-0.009-2.496-0.051-3.743-0.102  c-1.204-0.049-2.409-0.068-3.613-0.112c-1.685-0.062-3.37-0.136-5.055-0.205c-0.542-0.022-1.086-0.016-1.625-0.074  c-0.666-0.072-1.202,0.171-1.659,0.61c-0.582,0.558-0.646,1.287-0.519,2.019c0.417,2.394,1.236,4.653,2.357,6.808  c0.154,0.297,0.364,0.404,0.665,0.432c1.277,0.117,2.553,0.247,3.831,0.354c1.93,0.163,3.86,0.325,5.792,0.461  c2.43,0.172,4.861,0.324,7.292,0.471c1.538,0.093,3.078,0.156,4.616,0.241c0.151,0.009,0.199-0.032,0.206-0.177  c0.05-1.109,0.1-2.219,0.159-3.327c0.012-0.219-0.077-0.281-0.282-0.29c-1.333-0.059-2.665-0.128-3.998-0.189  c-1.299-0.06-2.598-0.112-3.896-0.171c-0.093-0.004-0.201,0.01-0.266-0.099c0.105-0.092,0.213-0.058,0.311-0.055  c0.275,0.008,0.55,0.03,0.825,0.042c0.929,0.041,1.858,0.079,2.787,0.121c1.41,0.064,2.82,0.128,4.23,0.198  c0.213,0.011,0.295-0.056,0.279-0.277c-0.071-0.996-0.136-1.992-0.192-2.989c-0.01-0.183-0.087-0.23-0.256-0.233  c-0.559-0.009-1.118-0.019-1.678-0.041c-1.299-0.051-2.599-0.074-3.898-0.108c-1.962-0.052-3.925-0.106-5.887-0.155  c-1.153-0.028-2.307-0.048-3.461-0.074C42.639,48.146,42.537,48.172,42.463,48.067z M19.664,49.419  c-0.941-0.113-1.822-0.206-2.7-0.33c-0.836-0.118-1.676-0.244-2.386-0.761c-0.097-0.07-0.173-0.039-0.261,0.007  c-0.38,0.195-0.797,0.226-1.208,0.222c-1.101-0.01-2.202-0.052-3.303-0.077c-0.964-0.022-1.928-0.038-2.892-0.06  c-0.314-0.007-0.465-0.198-0.333-0.475c0.3-0.631,0.74-1.124,1.468-1.26c0.544-0.102,1.1-0.067,1.648-0.08  c1.473-0.033,2.946-0.02,4.419-0.022c0.431-0.001,0.861,0.005,1.289,0.056c0.179,0.021,0.378,0.046,0.446,0.249  c0.061,0.181-0.073,0.306-0.185,0.426c-0.266,0.285-0.568,0.528-0.894,0.74c-0.155,0.101-0.142,0.157,0.002,0.247  c0.364,0.226,0.762,0.363,1.174,0.458c1.22,0.28,2.472,0.336,3.707,0.514c0.113,0.016,0.216-0.005,0.316-0.076  c1.639-1.158,3.47-1.618,5.462-1.535c2.069,0.085,3.878,0.793,5.415,2.186c0.093,0.084,0.189,0.138,0.319,0.146  c0.756,0.047,1.511,0.103,2.267,0.152c0.323,0.021,0.333,0.004,0.25-0.297c-0.278-0.995-0.611-1.979-0.67-3.019  c-0.052-0.91,0.269-1.73,1.183-2.169c0.052-0.025,0.138-0.022,0.148-0.12c-0.071-0.014-0.137-0.036-0.205-0.04  c-0.748-0.037-1.495-0.082-2.243-0.104c-1.266-0.038-2.525-0.144-3.771-0.373c-1.146-0.21-2.271-0.497-3.289-1.1  c-0.394-0.234-0.402-0.36-0.012-0.579c1.001-0.563,2.053-1.017,3.137-1.39c3.486-1.2,7.093-1.683,10.76-1.795  c1.396-0.042,2.788,0.042,4.172,0.239c2.073,0.294,4.028,0.917,5.768,2.116c0.56,0.386,1.11,0.762,1.792,0.922  c0.517,0.121,0.796,0.518,0.89,1.035c0.02,0.106,0.051,0.195,0.133,0.27c0.284,0.263,0.556,0.541,0.851,0.792  c0.175,0.149,0.298,0.407,0.522,0.442c0.548,0.086,1.106,0.062,1.668,0.06c-0.021-0.099-0.083-0.12-0.129-0.154  c-2.01-1.554-4.021-3.108-6.033-4.66c-0.224-0.173-0.496-0.302-0.674-0.512c-0.134-0.157-0.274-0.244-0.453-0.304  c-2.371-0.789-4.815-1.168-7.305-1.264c-2.189-0.084-4.373,0.031-6.546,0.311c-0.861,0.111-1.738,0.169-2.572,0.415  c-3.43,1.008-6.806,2.183-10.151,3.442c-1.144,0.431-2.264,0.94-3.432,1.291c-2.234,0.671-4.495,1.255-6.745,1.873  c-0.173,0.048-0.343,0.113-0.529,0.11c-0.585-0.01-1.173,0.014-1.756-0.034c-0.297-0.025-0.492,0.075-0.684,0.259  c-1.422,1.365-2.31,2.965-2.211,5.002c0.008,0.181-0.005,0.358-0.072,0.533c-0.092,0.243-0.031,0.332,0.23,0.356  c0.257,0.024,0.516,0.027,0.772,0.056c0.987,0.111,1.813,0.513,2.4,1.345c0.213,0.302,0.44,0.596,0.677,0.881  c0.56,0.674,1.177,1.286,1.986,1.658c1.551,0.712,3.182,1.166,4.856,1.478c0.19,0.035,0.285,0.001,0.296-0.222  c0.047-0.93,0.177-1.85,0.352-2.765c0.25-1.31,0.723-2.512,1.621-3.521C18.793,50.193,19.195,49.808,19.664,49.419z M85.472,48.311  c-0.047-0.017-0.094-0.036-0.142-0.051c-1.243-0.386-2.511-0.67-3.783-0.942c-3.043-0.652-6.117-1.087-9.221-1.319  c-1.562-0.117-3.123-0.235-4.687-0.336c-2.354-0.151-4.711-0.241-7.066-0.333c-1.023-0.04-2.049-0.044-3.073-0.059  c-0.467-0.007-0.935-0.001-1.411-0.001c1.096,0.683,1.684,1.707,1.921,2.954c0.035,0.184,0.156,0.175,0.288,0.175  c1.671-0.007,3.341,0.028,5.01,0.105c0.937,0.043,1.875,0.083,2.807,0.193c0.563,0.067,0.833,0.41,0.632,0.93  c-0.507,1.308-1.295,2.349-2.795,2.611c-0.376,0.065-0.754,0.074-1.133,0.064c-1.334-0.034-2.668-0.069-4.002-0.101  c-0.561-0.013-0.557-0.009-0.581,0.549c-0.044,1.006-0.091,2.012-0.146,3.018c-0.01,0.174,0.047,0.225,0.213,0.231  c1.875,0.08,3.749,0.176,5.624,0.245c1.462,0.055,2.926,0.085,4.389,0.114c0.713,0.015,0.544,0.085,0.643-0.549  c0.154-0.987,0.259-2,0.687-2.907c1.391-2.945,3.752-4.529,6.99-4.756c2.147-0.151,4.117,0.384,5.818,1.758  c0.068,0.055,0.144,0.111,0.233,0.089c0.41-0.102,0.819-0.211,1.27-0.328c-0.188-0.18-0.335-0.313-0.474-0.454  c-0.216-0.221-0.468-0.41-0.642-0.671c-0.168-0.253-0.074-0.446,0.224-0.456c0.31-0.009,0.619-0.008,0.929,0.027  C84.486,48.168,84.976,48.249,85.472,48.311z M30.054,50.137c0.055,0.039,0.116,0.072,0.165,0.117  c1.424,1.313,2.275,2.916,2.47,4.857c0.141,1.406,0.197,2.815,0.147,4.228c-0.007,0.212,0.046,0.274,0.265,0.275  c3.479,0.017,6.958,0.018,10.438,0.035c6.038,0.03,12.075,0.03,18.112,0.062c2.214,0.012,4.428,0.006,6.642,0.009  c0.284,0,0.569-0.007,0.853,0.011c0.245,0.015,0.299-0.1,0.268-0.313c-0.019-0.127-0.033-0.257-0.028-0.385  c0.027-0.645,0.054-1.289,0.098-1.933c0.012-0.187-0.02-0.255-0.225-0.26c-0.835-0.019-1.669-0.062-2.503-0.088  c-1.377-0.044-2.754-0.079-4.131-0.124c-1.419-0.045-2.839-0.099-4.258-0.146c-0.116-0.004-0.257-0.042-0.331,0.086  c-0.207,0.36-0.568,0.436-0.926,0.482c-0.84,0.11-1.684,0.03-2.526,0.015c-2.109-0.037-4.216-0.137-6.323-0.226  c-0.74-0.031-1.479-0.069-2.218-0.115c-1.83-0.112-3.659-0.23-5.488-0.347c-0.844-0.053-1.682-0.149-2.497-0.381  c-0.813-0.229-1.589-0.548-2.154-1.207c-0.211-0.247-0.434-0.379-0.746-0.439c-1.273-0.246-2.182-0.95-2.707-2.157  c-0.315-0.724-0.8-1.344-1.348-1.913c-0.079-0.082-0.16-0.151-0.282-0.164C30.581,50.092,30.343,50.063,30.054,50.137z   M82.787,50.142c0.021,0.042,0.024,0.061,0.035,0.071c0.044,0.042,0.09,0.081,0.134,0.122c1.09,1.02,1.862,2.23,2.194,3.697  c0.15,0.664,0.196,1.345,0.244,2.022c0.079,1.135,0.107,2.271,0.046,3.407c-0.013,0.253,0.047,0.309,0.285,0.307  c1.567-0.008,3.135-0.012,4.702,0.001c0.432,0.004,0.786-0.159,1.123-0.393c0.103-0.071,0.254-0.164,0.214-0.295  c-0.042-0.135-0.212-0.066-0.324-0.066c-0.938-0.003-1.876,0.01-2.808-0.143c-0.367-0.06-0.581-0.273-0.707-0.602  c-0.062-0.162-0.099-0.333-0.089-0.506c0.056-0.969,0.229-1.913,0.621-2.807c0.104-0.237,0.29-0.374,0.552-0.416  c0.62-0.101,1.215,0.035,1.809,0.186c0.14,0.035,0.282,0.087,0.406,0.159c0.236,0.139,0.223,0.346-0.022,0.469  c-0.242,0.121-0.509,0.161-0.772,0.198c-0.354,0.049-0.354,0.043-0.347,0.413c0.026,1.188-0.711,2.003-1.887,2.071  c-0.178,0.011-0.18,0.08-0.129,0.21c0.109,0.281,0.303,0.44,0.608,0.49c1.001,0.163,2.01,0.101,3.017,0.113  c0.137,0.002,0.225-0.067,0.293-0.177c0.207-0.337,0.422-0.67,0.622-1.012c0.158-0.27,0.381-0.412,0.694-0.413  c0.104-0.001,0.207-0.009,0.311-0.005c0.152,0.006,0.217-0.063,0.224-0.214c0.008-0.197,0.029-0.395,0.043-0.592  c0.025-0.376,0.161-0.5,0.531-0.495c0.106,0.002,0.218,0.036,0.367-0.041c-0.442-0.161-0.851-0.309-1.258-0.457  c-0.104-0.038-0.21-0.072-0.269-0.184c-0.611-1.152-0.827-2.382-0.701-3.672c0.032-0.33,0.241-0.539,0.579-0.611  c0.421-0.09,0.84-0.188,1.258-0.288c0.061-0.014,0.155,0,0.163-0.093c0.005-0.068-0.069-0.093-0.115-0.128  c-0.463-0.348-0.968-0.626-1.471-0.911c-0.374-0.212-0.749-0.32-1.183-0.224c-0.241,0.054-0.496,0.048-0.744,0.073  c-0.654,0.065-1.309,0.133-2.014,0.205c0.339,0.197,0.63,0.36,0.915,0.532c0.76,0.457,0.979,1.172,0.902,1.996  c-0.066,0.701-0.459,0.954-1.151,0.784c-0.941-0.231-1.831-0.6-2.685-1.057c-0.984-0.526-1.869-1.195-2.714-1.921  c-0.098-0.084-0.186-0.17-0.34-0.125C83.571,49.936,83.188,50.034,82.787,50.142z M48.911,44.86c-0.055-0.1-0.151-0.059-0.229-0.063  c-0.188-0.008-0.378,0.006-0.565-0.036c-0.306-0.069-0.47-0.224-0.52-0.53c-0.066-0.399,0.014-0.787,0.117-1.17  c0.075-0.275,0.216-0.509,0.455-0.668c0.154-0.103,0.129-0.166-0.012-0.251c-0.368-0.224-0.736-0.446-1.122-0.638  c-2.482-1.229-5.156-1.462-7.864-1.491c-0.738-0.008-1.478,0.051-2.216,0.095c-0.893,0.053-1.78,0.161-2.668,0.268  c-0.206,0.025-0.249,0.105-0.186,0.307c0.329,1.042,0.663,2.083,0.954,3.136c0.113,0.41,0.243,0.702,0.735,0.622  c0.057-0.009,0.119,0.019,0.178,0.021c1.358,0.054,2.716,0.11,4.074,0.16c1.942,0.071,3.885,0.139,5.828,0.208  c0.945,0.033,1.891,0.066,2.836,0.097C48.776,44.927,48.863,44.956,48.911,44.86z M70.526,55.999  c-0.124,3.445,2.843,6.723,6.682,6.712c3.754-0.01,6.604-3.085,6.695-6.513c0.1-3.715-2.924-6.895-6.705-6.893  C73.354,49.306,70.41,52.574,70.526,55.999z M25.038,62.718c3.376,0.107,6.695-2.786,6.696-6.677  c0.001-3.826-3.211-6.697-6.687-6.707c-3.562-0.01-6.721,2.954-6.722,6.698C18.324,59.881,21.606,62.833,25.038,62.718z   M35.898,54.559c0.384,0.497,0.858,0.796,1.385,1.021c1.112,0.474,2.293,0.595,3.482,0.67c1.521,0.097,3.042,0.18,4.562,0.28  c2.311,0.153,4.625,0.242,6.938,0.337c1.272,0.052,2.547,0.071,3.82,0.106c0.415,0.012,0.827-0.005,1.232-0.102  c0.169-0.04,0.333-0.095,0.467-0.21c0.138-0.118,0.182-0.286,0.141-0.445c-0.039-0.154-0.203-0.091-0.313-0.097  c-0.73-0.041-1.462-0.071-2.192-0.114c-1.977-0.114-3.952-0.23-5.929-0.352c-1.082-0.066-2.165-0.138-3.246-0.219  c-1.716-0.128-3.433-0.261-5.148-0.402c-1.252-0.104-2.503-0.224-3.755-0.338C36.875,54.652,36.408,54.607,35.898,54.559z   M59.462,45.145c-0.085-0.14-0.188-0.188-0.277-0.251c-1.61-1.138-3.261-2.212-4.951-3.228c-1.513-0.909-3.051-1.771-4.624-2.571  c-0.121-0.062-0.246-0.166-0.385-0.124c-0.452,0.136-0.904,0.278-1.345,0.445c-0.16,0.061-0.153,0.189,0.008,0.285  c0.118,0.069,0.235,0.143,0.343,0.227c2.126,1.64,4.252,3.281,6.375,4.925c0.163,0.127,0.328,0.185,0.538,0.201  c0.662,0.051,1.325,0.008,1.986,0.044C57.894,45.141,58.657,45.139,59.462,45.145z M6.75,55.202  c-0.008,0.191-0.133,0.204-0.251,0.188c-0.328-0.041-0.46,0.225-0.651,0.398c-0.046,0.043-0.046,0.089,0.019,0.12  c0.458,0.224,0.78,0.618,1.171,0.925c0.151,0.119,0.318,0.16,0.505,0.159c0.534-0.003,1.068-0.003,1.603,0.002  c0.096,0,0.209-0.035,0.313,0.133c-0.59,0-1.146,0-1.701,0c-0.006,0.025-0.012,0.052-0.018,0.077c0.23,0.174,0.468,0.34,0.69,0.523  c0.198,0.164,0.413,0.258,0.668,0.307c0.683,0.132,1.375,0.223,2.045,0.424c1.849,0.556,3.719,1.009,5.646,1.196  c0.204,0.02,0.282-0.038,0.275-0.248c-0.012-0.354-0.018-0.707,0.003-1.06c0.013-0.222-0.078-0.302-0.278-0.348  c-0.806-0.187-1.606-0.394-2.412-0.576c-2.009-0.457-3.85-1.238-5.339-2.715C8.82,54.494,8.58,54.317,8.28,54.232  c-0.462-0.131-0.934-0.146-1.409-0.135c-0.175,0.003-0.252,0.092-0.236,0.262c0.018,0.201,0.041,0.401,0.067,0.649  c0.088-0.267,0.251-0.322,0.462-0.301c0.231,0.022,0.463,0.046,0.695,0.057c0.356,0.017,0.651,0.156,0.88,0.425  c0.251,0.296,0.495,0.598,0.742,0.896c0.102,0.123,0.195,0.252,0.131,0.421c-0.068,0.18-0.235,0.226-0.4,0.234  c-0.283,0.016-0.568,0.003-0.852,0.012c-0.245,0.008-0.44-0.091-0.589-0.271C7.431,56.071,7.071,55.676,6.75,55.202z M33.126,40.554  c-0.076,0.009-0.136,0.014-0.196,0.024c-1.399,0.246-2.782,0.564-4.136,1c-0.713,0.229-1.415,0.49-2.1,0.794  c-0.108,0.047-0.25,0.085-0.242,0.233c0.007,0.145,0.149,0.176,0.261,0.215c0.162,0.057,0.328,0.105,0.493,0.153  c1.394,0.4,2.819,0.632,4.262,0.758c0.805,0.071,1.614,0.107,2.422,0.109c0.267,0.001,0.322-0.067,0.251-0.308  c-0.281-0.949-0.568-1.896-0.85-2.844C33.262,40.592,33.219,40.536,33.126,40.554z M65.269,45.385  c0.438,0.023,0.876,0.043,1.314,0.069c0.928,0.055,1.856,0.103,2.783,0.172c1.416,0.107,2.832,0.22,4.246,0.35  c1.063,0.098,2.125,0.204,3.183,0.345c1.212,0.162,2.412,0.401,3.613,0.626c2.739,0.515,5.446,1.143,7.969,2.38  c0.269,0.131,0.527,0.167,0.821,0.124c0.425-0.063,0.856-0.084,1.285-0.126c0.515-0.051,1.03-0.106,1.615-0.167  c-0.866-0.38-1.683-0.677-2.513-0.933c-2.175-0.671-4.394-1.152-6.633-1.544c-1.637-0.287-3.286-0.47-4.938-0.638  c-1.026-0.104-2.055-0.189-3.084-0.272c-1.243-0.099-2.488-0.17-3.733-0.235c-0.653-0.034-1.308-0.047-1.961-0.073  C67.915,45.409,66.593,45.369,65.269,45.385z M48.952,38.885c-0.003-0.022-0.006-0.043-0.01-0.065  c-0.104-0.039-0.207-0.08-0.312-0.115c-2.209-0.739-4.496-1.075-6.804-1.282c-1.327-0.119-2.657-0.189-3.993-0.131  c-0.894,0.039-1.788,0.05-2.681,0.11c-1.624,0.109-3.234,0.315-4.828,0.64c-0.131,0.027-0.279,0.021-0.419,0.117  c0.727,0.304,0.857,0.341,1.114,0.304c0.357-0.053,0.714-0.107,1.071-0.163c1.83-0.285,3.672-0.43,5.521-0.488  c1.472-0.046,2.94,0.033,4.405,0.184c1.908,0.196,3.772,0.58,5.589,1.196c0.082,0.028,0.164,0.071,0.25,0.044  C48.221,39.122,48.586,39.002,48.952,38.885z M77.022,48.262c-0.312-0.012-0.793,0.026-1.268,0.112  c-2.659,0.48-4.636,1.909-5.862,4.319c-0.555,1.09-0.666,2.308-0.844,3.5c-0.023,0.155,0.078,0.204,0.2,0.203  c0.121-0.002,0.292,0.084,0.326-0.138c0.051-0.323,0.104-0.646,0.155-0.968c0.219-1.366,0.694-2.609,1.57-3.711  c2.672-3.361,7.372-3.586,10.266-1.519c0.226,0.161,0.414,0.167,0.643,0.083c0.054-0.02,0.134-0.016,0.147-0.085  c0.014-0.07-0.063-0.094-0.106-0.132c-0.045-0.04-0.095-0.075-0.144-0.11C80.648,48.733,78.995,48.266,77.022,48.262z   M62.775,52.159c0.422,0.035,0.748,0.003,1.07-0.052c0.512-0.086,1.025-0.195,1.418-0.563c0.281-0.264,0.535-0.561,0.776-0.863  c0.297-0.371,0.566-0.765,0.598-1.263c0.023-0.365-0.138-0.544-0.502-0.581c-0.359-0.036-0.72-0.071-1.08-0.096  c-2.25-0.152-4.504-0.176-6.757-0.213c-0.198-0.003-0.249,0.055-0.236,0.25c0.065,1.013,0.121,2.026,0.171,3.041  c0.01,0.194,0.096,0.243,0.274,0.246C59.962,52.093,61.415,52.128,62.775,52.159z M30.5,38.558  c-0.193-0.073-0.352-0.117-0.496-0.191c-0.306-0.156-0.602-0.14-0.92-0.03c-0.52,0.181-1.051,0.328-1.575,0.498  c-3.376,1.09-6.684,2.36-9.942,3.761c-0.447,0.192-0.893,0.389-1.365,0.595c0.109,0.05,0.182,0.025,0.255,0.014  c1.171-0.18,2.289-0.55,3.391-0.973c2.337-0.897,4.695-1.739,7.073-2.523C28.096,39.321,29.277,38.951,30.5,38.558z M33.293,43.976  c-1.074-0.024-2.189-0.11-3.297-0.271c-1.144-0.166-2.271-0.403-3.37-0.764c-0.156-0.051-0.327-0.118-0.343-0.31  c-0.018-0.209,0.15-0.299,0.312-0.365c0.485-0.2,0.969-0.405,1.463-0.583c1.707-0.611,3.466-1.021,5.254-1.311  c0.1-0.016,0.284,0.024,0.263-0.164c-0.023-0.204-0.183-0.153-0.322-0.131c-0.688,0.112-1.373,0.238-2.053,0.39  c-2.057,0.462-4.051,1.104-5.918,2.1c-0.107,0.058-0.299,0.076-0.288,0.216c0.01,0.117,0.189,0.158,0.302,0.214  c1.021,0.505,2.118,0.766,3.234,0.942c2.027,0.32,4.077,0.335,6.12,0.438c0.161,0.008,0.191-0.028,0.142-0.186  c-0.36-1.167-0.712-2.337-1.068-3.506c-0.031-0.101-0.041-0.241-0.211-0.191c-0.189,0.055-0.079,0.179-0.052,0.27  c0.27,0.908,0.544,1.814,0.817,2.72c0.108,0.36,0.022,0.484-0.346,0.491C33.735,43.979,33.537,43.976,33.293,43.976z M31.175,50.141  c0.05,0.062,0.072,0.096,0.1,0.125c0.627,0.63,1.114,1.354,1.466,2.17c0.047,0.11,0.109,0.216,0.173,0.316  c0.546,0.854,1.358,1.291,2.329,1.476c0.073,0.014,0.166,0.08,0.219,0.021c0.071-0.078-0.025-0.158-0.061-0.228  c-0.581-1.107-1.079-2.251-1.473-3.438c-0.073-0.219-0.19-0.292-0.41-0.3c-0.473-0.019-0.944-0.063-1.416-0.093  C31.806,50.171,31.509,50.159,31.175,50.141z M6.138,51.886c-0.556-0.021-0.559-0.019-0.392,0.356  c0.017,0.039,0.036,0.078,0.054,0.117c0.265,0.609,0.5,1.229,0.607,1.888c0.035,0.212,0.14,0.452-0.13,0.626  c-0.089,0.057-0.013,0.195,0.022,0.287c0.03,0.077,0.111,0.081,0.179,0.057c0.121-0.046,0.089-0.155,0.08-0.245  c-0.02-0.196-0.053-0.392-0.074-0.589c-0.028-0.261,0.072-0.424,0.324-0.43c0.86-0.021,1.704,0.011,2.375,0.688  c0.69,0.695,1.488,1.246,2.372,1.679c1.487,0.728,3.104,1.009,4.688,1.406c0.14,0.035,0.181-0.015,0.192-0.151  c0.017-0.207-0.069-0.283-0.271-0.317c-1.19-0.202-2.358-0.497-3.494-0.91c-0.882-0.32-1.771-0.629-2.494-1.267  c-0.617-0.544-1.154-1.16-1.619-1.837C7.937,52.338,7.052,51.947,6.138,51.886z M20.662,49.538  c-0.237-0.026-0.474-0.054-0.711-0.079c-0.072-0.007-0.133,0.03-0.188,0.074c-1.203,0.962-2.152,2.105-2.576,3.621  c-0.291,1.04-0.463,2.102-0.559,3.175c-0.038,0.429-0.045,0.859-0.061,1.289c-0.01,0.278,0.23,0.251,0.388,0.271  c0.188,0.023,0.144-0.152,0.147-0.263c0.029-0.922,0.163-1.831,0.314-2.74c0.237-1.42,0.737-2.719,1.688-3.823  C19.574,50.518,20.098,50.037,20.662,49.538z M30.648,49.914c-1.414-1.324-3.108-1.978-5.02-2.104  c-2.043-0.136-4.791,0.622-5.508,1.51c0.095,0.015,0.188,0.032,0.281,0.044c0.128,0.017,0.257,0.025,0.384,0.048  c0.11,0.021,0.2-0.01,0.292-0.066c1.351-0.821,2.819-1.138,4.393-1.064c1.498,0.07,2.857,0.517,4.054,1.416  C29.882,49.965,30.259,49.909,30.648,49.914z M39.137,39.575c-1.027-0.023-2.212,0.061-3.395,0.173  c-0.625,0.059-1.247,0.153-1.87,0.235c-0.068,0.009-0.172-0.006-0.155,0.12c0.015,0.104,0.059,0.181,0.183,0.172  c0.042-0.003,0.086-0.006,0.128-0.012c1.404-0.209,2.817-0.332,4.236-0.382c1.429-0.051,2.854,0.001,4.276,0.182  c2.086,0.265,4.054,0.854,5.822,2.026c0.071,0.047,0.14,0.104,0.232,0.102c0.068-0.002,0.159,0.015,0.188-0.054  c0.036-0.087-0.067-0.104-0.117-0.139c-1.124-0.789-2.344-1.374-3.667-1.745C43.133,39.729,41.228,39.56,39.137,39.575z   M82.032,50.363c0.031,0.083,0.111,0.125,0.173,0.18c1.19,1.053,2.066,2.307,2.423,3.875c0.243,1.068,0.285,2.162,0.324,3.253  c0.021,0.627,0.001,1.256-0.001,1.885c-0.001,0.113,0.016,0.204,0.162,0.208c0.139,0.004,0.185-0.064,0.182-0.188  c-0.001-0.035,0.004-0.069,0.004-0.104c0.018-1.515,0.011-3.026-0.147-4.537c-0.186-1.772-0.971-3.218-2.231-4.445  C82.63,50.208,82.363,50.172,82.032,50.363z M8.188,45.393c0.397,0.018,0.775,0.039,1.153,0.05c0.387,0.012,0.769,0.008,1.15-0.106  c0.783-0.234,1.578-0.43,2.362-0.662c1.938-0.575,3.918-0.992,5.808-1.741c3.915-1.552,7.892-2.932,11.922-4.157  c0.056-0.017,0.125-0.02,0.182-0.12c-0.081,0.022-0.121,0.032-0.16,0.044c-3.6,1.093-7.154,2.319-10.668,3.664  c-1.079,0.413-2.172,0.771-3.313,0.974c-0.43,0.076-0.87,0.043-1.295,0.192C13.004,44.341,10.655,45.063,8.188,45.393z   M90.406,51.515c0.039-0.38-0.14-0.681-0.55-0.887c-0.592-0.299-1.176-0.615-1.785-0.875c-1.558-0.664-3.137-1.252-4.853-1.344  c-0.077-0.004-0.205-0.083-0.228,0.017c-0.025,0.11,0.084,0.195,0.198,0.233c0.057,0.019,0.115,0.032,0.174,0.047  c0.769,0.191,1.542,0.366,2.305,0.578c1.329,0.37,2.642,0.785,3.819,1.538c0.344,0.22,0.494,0.513,0.427,0.916  c-0.036,0.212-0.072,0.425-0.1,0.638c-0.025,0.207,0.049,0.261,0.251,0.201c0.122-0.036,0.18-0.129,0.221-0.235  C90.379,52.097,90.408,51.841,90.406,51.515z M49.279,42.129c-0.077-0.064-0.126-0.11-0.18-0.15c-1.531-1.124-3.231-1.86-5.09-2.24  c-2.141-0.438-4.304-0.488-6.478-0.379c-2.232,0.111-4.439,0.402-6.618,0.9c-2.082,0.477-4.092,1.152-5.972,2.185  c-0.081,0.044-0.196,0.06-0.226,0.186c0.13,0.035,0.208-0.049,0.293-0.096c1.112-0.613,2.282-1.092,3.486-1.488  c1.754-0.577,3.553-0.957,5.378-1.217c1.595-0.227,3.198-0.368,4.808-0.408c1.257-0.031,2.512,0.032,3.763,0.181  c2.367,0.282,4.568,0.998,6.51,2.419C49.036,42.081,49.11,42.163,49.279,42.129z M91.349,59.701  c0.849-0.067,1.693-0.045,2.522-0.199c0.193-0.036,0.388-0.084,0.559-0.189c0.207-0.127,0.208-0.267-0.009-0.38  c-0.144-0.074-0.305-0.114-0.458-0.167c-0.474-0.162-0.973-0.082-1.456-0.151c-0.245-0.035-0.42,0.054-0.482,0.274  C91.918,59.265,91.688,59.516,91.349,59.701z M88.197,51.58c-0.129,0-0.259,0.007-0.387-0.002c-0.577-0.036-1.074-0.242-1.422-0.725  c-0.241-0.336-0.363-0.724-0.385-1.134c-0.008-0.165-0.07-0.224-0.213-0.259c-0.317-0.08-0.631-0.176-0.948-0.252  c-0.1-0.023-0.232-0.129-0.306-0.011c-0.059,0.094,0.046,0.207,0.091,0.308c0.007,0.016,0.017,0.03,0.024,0.045  c0.511,0.892,1.222,1.583,2.149,2.018C87.24,51.774,87.729,51.772,88.197,51.58z M94.554,53.315c0-0.55-0.006-1.1,0.002-1.649  c0.004-0.242-0.17-0.27-0.334-0.315c-0.173-0.05-0.177,0.102-0.206,0.197c-0.079,0.263-0.155,0.527-0.215,0.795  c-0.108,0.486-0.104,0.488,0.335,0.734c0.148,0.083,0.289,0.175,0.271,0.369c-0.017,0.193-0.171,0.264-0.329,0.321  c-0.048,0.018-0.099,0.033-0.149,0.037c-0.191,0.018-0.218,0.119-0.166,0.284c0.102,0.329,0.229,0.647,0.38,0.957  c0.048,0.099,0.07,0.251,0.244,0.202c0.16-0.045,0.168-0.173,0.168-0.308C94.553,54.398,94.554,53.857,94.554,53.315z   M49.447,43.792c0,0.009,0,0.018,0,0.027c-0.361,0-0.723-0.004-1.084,0.002c-0.085,0.001-0.235-0.041-0.235,0.084  c0.001,0.154,0.16,0.088,0.248,0.089c0.249,0.001,0.498-0.022,0.747-0.027c0.594-0.011,1.188-0.011,1.781-0.024  c0.309-0.007,0.36-0.077,0.317-0.381c-0.066-0.464-0.307-0.797-0.744-0.977c-0.393-0.161-0.804-0.253-1.229-0.267  c-0.371-0.012-0.667,0.141-0.881,0.446c-0.043,0.062-0.106,0.131-0.072,0.21c0.039,0.088,0.135,0.06,0.208,0.06  c0.49,0.003,0.981-0.001,1.471,0.003c0.268,0.002,0.536,0.021,0.782,0.138c0.168,0.08,0.388,0.161,0.351,0.388  c-0.032,0.203-0.257,0.218-0.422,0.224C50.273,43.803,49.86,43.792,49.447,43.792z M58.239,56.149  c-0.011,0.004-0.135-0.058-0.139,0.074c-0.004,0.106,0.106,0.086,0.18,0.099c0.025,0.004,0.051,0.006,0.076,0.007  c1.136,0.043,2.271,0.088,3.405,0.126c0.895,0.03,1.79,0.047,2.685,0.078c1.625,0.057,3.25,0.12,4.876,0.179  c0.07,0.002,0.181,0.028,0.18-0.086c-0.002-0.11-0.112-0.084-0.184-0.087c-0.396-0.018-0.791-0.033-1.187-0.046  c-1.187-0.035-2.374-0.08-3.562-0.101C62.479,56.356,60.393,56.208,58.239,56.149z M8.675,56.471c0.189,0,0.327,0.005,0.464-0.001  c0.17-0.008,0.257-0.062,0.115-0.231c-0.231-0.277-0.458-0.56-0.689-0.837c-0.198-0.237-0.447-0.368-0.764-0.364  C7.664,55.04,7.527,55.01,7.39,55.005c-0.116-0.005-0.271-0.08-0.337,0.03c-0.067,0.111,0.062,0.219,0.134,0.31  c0.176,0.223,0.378,0.426,0.538,0.659C7.971,56.365,8.276,56.566,8.675,56.471z M94.073,50.925  c-0.224,0.047-0.405,0.085-0.588,0.123c-0.725,0.151-0.83,0.28-0.833,1.02c0,0.043,0,0.086,0.001,0.129  c0.011,0.708,0.042,0.73,0.751,0.604c0.102-0.018,0.154-0.062,0.173-0.157C93.685,52.069,93.846,51.511,94.073,50.925z   M86.546,50.449c0.024,0.145-0.056,0.344,0.105,0.501c0.434,0.421,0.964,0.543,1.542,0.476c0.245-0.029,0.324-0.262,0.176-0.468  c-0.068-0.096-0.162-0.178-0.258-0.248c-0.334-0.242-0.694-0.442-1.067-0.619C86.546,49.856,86.545,49.857,86.546,50.449z   M13.027,47.026c-1.661,0-3.279-0.004-4.897,0.004c-0.249,0.001-0.471,0.112-0.674,0.295c0.136,0.064,0.249,0.038,0.357,0.036  c0.55-0.009,1.101-0.028,1.652-0.035c0.947-0.011,1.895-0.012,2.842-0.022C12.562,47.302,12.825,47.301,13.027,47.026z   M49.18,44.623c0,0.003,0,0.006,0,0.009c0.412-0.019,0.824-0.033,1.235-0.06c0.224-0.015,0.443-0.068,0.637-0.186  c0.09-0.054,0.186-0.13,0.146-0.245c-0.035-0.1-0.148-0.063-0.23-0.062c-0.851,0.016-1.701,0.033-2.551,0.054  c-0.104,0.003-0.254-0.057-0.295,0.082c-0.044,0.151,0.079,0.253,0.195,0.331c0.096,0.064,0.208,0.078,0.321,0.078  C48.819,44.623,49,44.623,49.18,44.623z M12.061,47.801c-0.319,0.015-0.576,0.033-0.834,0.038c-1.334,0.024-2.668,0.044-4.003,0.068  c-0.064,0.001-0.166-0.027-0.175,0.059c-0.011,0.097,0.092,0.106,0.169,0.117c0.042,0.006,0.086,0.005,0.129,0.006  c1.282,0.037,2.564,0.06,3.845,0.119C11.554,48.224,11.792,48.077,12.061,47.801z M94.099,57.62c0.002,0,0.005,0,0.007,0  c-0.006,0.111,0,0.225-0.019,0.334c-0.026,0.162,0.033,0.225,0.192,0.209c0.068-0.007,0.139-0.008,0.206,0  c0.203,0.025,0.264-0.062,0.27-0.263c0.013-0.445,0.044-0.891,0.087-1.334c0.04-0.409,0.032-0.423-0.376-0.478  c-0.188-0.025-0.271,0.031-0.282,0.222C94.16,56.747,94.128,57.184,94.099,57.62z M12.461,47.478  c-0.098-0.06-0.186-0.038-0.269-0.037c-0.723,0.01-1.445,0.028-2.168,0.036c-0.853,0.01-1.705,0.017-2.557,0.019  c-0.186,0-0.312,0.057-0.357,0.258c0.254,0.052,0.492-0.015,0.73-0.018c1.412-0.015,2.824-0.041,4.235-0.061  C12.232,47.673,12.362,47.632,12.461,47.478z M13.323,47.727c0.007,0.02,0.014,0.039,0.021,0.058c0.257,0,0.515-0.008,0.771,0.003  c0.129,0.005,0.327-0.075,0.371,0.069c0.043,0.141-0.186,0.16-0.306,0.297c0.569-0.188,0.965-0.538,1.34-0.917  c0.113-0.114-0.009-0.138-0.093-0.158c-0.322-0.078-0.65-0.056-0.976-0.06c-0.121-0.001-0.241-0.001-0.344,0.081  C13.846,47.311,13.584,47.518,13.323,47.727z M94.201,55.508c-0.22-0.408-0.411-0.809-0.529-1.238  c-0.15-0.548-0.07-0.404-0.62-0.516c-0.164-0.033-0.231,0.025-0.177,0.191c0.081,0.245,0.183,0.484,0.247,0.732  C93.263,55.225,93.664,55.425,94.201,55.508z M88.871,54.739c0.352,0.088,0.695,0.14,0.881,0.413  c0.209,0.306,0.462,0.304,0.762,0.229c0.149-0.036,0.302-0.063,0.452-0.1c0.099-0.024,0.232-0.032,0.248-0.15  c0.02-0.145-0.133-0.164-0.229-0.201c-0.503-0.196-1.036-0.243-1.566-0.283C89.258,54.635,89.077,54.651,88.871,54.739z   M15.732,47.001c-0.143-0.211-0.305-0.216-0.45-0.223c-0.541-0.026-1.083-0.048-1.624-0.055c-1.574-0.02-3.148-0.003-4.721,0.059  c-0.374,0.015-0.764-0.023-1.123,0.147c0.328-0.09,0.663-0.068,0.997-0.068c1.532,0,3.063-0.006,4.595,0.002  C14.16,46.867,14.918,46.798,15.732,47.001z M51.555,45.089c0,0,0,0.001,0,0.002c0.188,0,0.377,0.006,0.565-0.002  c0.146-0.007,0.198-0.083,0.131-0.225c-0.145-0.306-0.372-0.53-0.668-0.689c-0.117-0.063-0.188-0.028-0.242,0.09  c-0.075,0.165-0.209,0.281-0.38,0.324c-0.198,0.049-0.204,0.14-0.149,0.313c0.046,0.145,0.117,0.192,0.255,0.188  C51.229,45.085,51.392,45.089,51.555,45.089z M13.955,47.044c-0.365-0.034-0.653-0.074-0.9,0.177  c-0.15,0.152-0.335,0.269-0.504,0.402c-0.233,0.185-0.465,0.37-0.697,0.555c0.229,0.036,0.462,0.143,0.641,0.012  C12.977,47.836,13.438,47.453,13.955,47.044z M50.907,43.563c-0.513,0-0.989,0.001-1.464-0.001c-0.072,0-0.177,0.036-0.208-0.05  c-0.039-0.106,0.07-0.162,0.134-0.227c0.066-0.068,0.157-0.061,0.243-0.061c0.242,0,0.483,0,0.725,0  c-0.429-0.028-0.858-0.029-1.288-0.028c-0.241,0-0.481-0.006-0.721,0.007c-0.229,0.013-0.18,0.219-0.209,0.355  c-0.027,0.125,0.077,0.133,0.168,0.127c0.763-0.055,1.528-0.021,2.292-0.037C50.677,43.645,50.783,43.663,50.907,43.563z   M93.301,57.954c0-0.068,0.008-0.138-0.002-0.205c-0.016-0.11,0.064-0.264-0.086-0.318c-0.158-0.058-0.284,0.043-0.373,0.164  c-0.112,0.15-0.216,0.31-0.305,0.474c-0.067,0.123-0.24,0.246-0.16,0.374c0.061,0.099,0.256,0.041,0.391,0.041  C93.381,58.48,93.293,58.556,93.301,57.954z M83.325,48.852c0.537,0.498,1.013,0.969,1.563,1.354  c-0.107-0.203-0.293-0.376-0.338-0.58c-0.125-0.556-0.527-0.674-0.995-0.732C83.496,48.887,83.438,48.874,83.325,48.852z   M93.405,53.174c-0.155,0-0.311-0.004-0.465,0.002c-0.069,0.002-0.174-0.038-0.182,0.081c-0.008,0.109,0.077,0.14,0.17,0.154  c0.349,0.054,0.697,0.107,1.045,0.165c0.133,0.022,0.262,0.011,0.285-0.138c0.02-0.13-0.103-0.187-0.213-0.222  C93.836,53.151,93.618,53.201,93.405,53.174z M48.414,42.432c-0.201,0.094-0.327,0.207-0.411,0.357  c-0.256,0.46-0.299,0.961-0.247,1.473c0.015,0.145,0.111,0.257,0.277,0.292C47.848,43.792,47.954,43.102,48.414,42.432z   M6.384,56.794c0.055,0.357,0.217,0.605,0.457,0.673c0.468,0.132,0.941,0.246,1.412,0.368C7.651,57.461,6.906,57.369,6.384,56.794z   M94.793,51.657c-0.017-0.001-0.033-0.001-0.051-0.001c0,1.11,0,2.222,0,3.333c0.018,0,0.034,0,0.051,0  C94.793,53.878,94.793,52.768,94.793,51.657z M33.896,40.521c-0.018,0.007-0.035,0.015-0.052,0.022  c0.388,1.277,0.777,2.555,1.165,3.833c0.019-0.006,0.037-0.012,0.056-0.017C34.675,43.08,34.286,41.8,33.896,40.521z M7.632,57.323  c-0.202-0.229-0.494-0.195-0.676-0.375c-0.183-0.181-0.392-0.334-0.586-0.502c-0.398-0.343-0.397-0.344-0.654-0.382  C6.356,56.518,6.812,57.147,7.632,57.323z"
        ></path>
        <path
          xmlns="http://www.w3.org/2000/svg"
          fill-rule="evenodd"
          clip-rule="evenodd"
          d="M38.828,47.283c-0.53-0.013-0.959-0.027-1.375-0.159  c-0.165-0.052-0.321-0.123-0.462-0.224c-0.439-0.314-0.411-0.73,0.067-0.991c0.311-0.17,0.654-0.229,0.997-0.221  c0.784,0.018,1.56,0.111,2.306,0.372c0.155,0.054,0.307,0.114,0.441,0.21c0.302,0.216,0.294,0.488-0.032,0.667  c-0.337,0.185-0.716,0.237-1.091,0.282C39.364,47.257,39.046,47.268,38.828,47.283z M40.853,46.686  c-0.095-0.028-0.16-0.053-0.226-0.066c-0.884-0.176-1.778-0.181-2.673-0.16c-0.034,0.001-0.07,0.004-0.103,0.013  c-0.121,0.033-0.103,0.145-0.124,0.232c-0.012,0.052-0.007,0.107,0.054,0.128c0.079,0.027,0.129-0.023,0.178-0.073  c0.145-0.149,0.326-0.178,0.523-0.165c0.317,0.022,0.636,0.03,0.952,0.065c0.228,0.025,0.466,0.004,0.678,0.129  C40.428,46.973,40.55,46.958,40.853,46.686z M40.072,46.961c-0.091-0.103-0.197-0.122-0.297-0.129  c-0.472-0.035-0.944-0.064-1.417-0.087c-0.073-0.003-0.188,0.016-0.215,0.063c-0.145,0.255-0.373,0.198-0.598,0.172  C38.071,47.177,39.708,47.162,40.072,46.961z M37.396,45.934c0.519,0.046,1.029,0.186,1.554,0.193s1.043,0.089,1.562,0.166  C39.5,45.924,38.471,45.73,37.396,45.934z"
        ></path>
        <path
          xmlns="http://www.w3.org/2000/svg"
          fill-rule="evenodd"
          clip-rule="evenodd"
          d="M82.74,56.017c0.132,2.937-2.539,5.634-5.637,5.558  c-3.005-0.073-5.45-2.519-5.467-5.571c-0.016-3.122,2.676-5.623,5.688-5.563C80.243,50.499,82.866,53.058,82.74,56.017z   M82.601,56.005c0-2.99-2.396-5.39-5.372-5.409c-2.93-0.019-5.44,2.365-5.44,5.406c0.001,3.13,2.577,5.423,5.374,5.418  C80.206,61.415,82.601,59.036,82.601,56.005z"
        ></path>
        <path
          xmlns="http://www.w3.org/2000/svg"
          fill-rule="evenodd"
          clip-rule="evenodd"
          d="M19.482,56.035c-0.105-2.817,2.333-5.571,5.558-5.564  c3.139,0.006,5.603,2.646,5.552,5.637c-0.052,3.04-2.511,5.496-5.586,5.498C21.82,61.607,19.378,58.874,19.482,56.035z   M25.03,61.433c2.781,0.088,5.411-2.274,5.411-5.388c0-3.145-2.646-5.454-5.426-5.411c-3.023,0.047-5.39,2.409-5.395,5.464  C19.616,59.027,22.151,61.521,25.03,61.433z"
        ></path>
        <path
          xmlns="http://www.w3.org/2000/svg"
          fill-rule="evenodd"
          clip-rule="evenodd"
          d="M62.196,51.833c-0.57,0.014-1.24-0.022-1.91-0.045  c-0.183-0.007-0.36-0.033-0.531-0.097c-0.314-0.116-0.457-0.308-0.461-0.639c-0.006-0.517-0.009-1.033-0.006-1.549  c0.002-0.421,0.219-0.651,0.633-0.644c1.71,0.034,3.421,0.078,5.131,0.119c0.12,0.003,0.239,0.027,0.359,0.033  c0.415,0.019,0.589,0.204,0.555,0.622c-0.009,0.108,0.02,0.161,0.112,0.196c0.101,0.039,0.154,0.112,0.133,0.221  c-0.023,0.12-0.114,0.158-0.227,0.172c-0.224,0.027-0.537,0.307-0.6,0.513c-0.023,0.08,0.026,0.084,0.07,0.105  c0.098,0.046,0.146,0.121,0.116,0.229c-0.027,0.097-0.111,0.151-0.196,0.138c-0.298-0.045-0.484,0.114-0.694,0.295  c-0.306,0.262-0.706,0.307-1.094,0.325C63.158,51.849,62.727,51.833,62.196,51.833z M63.939,50.773  c0.396,0.011,0.822,0.116,1.024-0.396c0.053-0.132,0.106-0.19-0.092-0.194c-1.42-0.032-2.84-0.068-4.259-0.109  c-0.186-0.005-0.271,0.049-0.26,0.247c0.011,0.181-0.035,0.355,0.257,0.36C61.721,50.701,62.83,50.741,63.939,50.773z M59.9,49.804  c0,0.039,0.001,0.078,0.002,0.118c2.032,0.05,4.064,0.1,6.097,0.15c0.001-0.038,0.002-0.075,0.003-0.112  C63.968,49.907,61.934,49.855,59.9,49.804z M59.898,50.802c-0.001,0.036-0.003,0.072-0.005,0.109  c1.835,0.098,3.672,0.103,5.508,0.168c0.001-0.039,0.002-0.078,0.003-0.117C63.569,50.909,61.734,50.855,59.898,50.802z"
        ></path>
        <path
          xmlns="http://www.w3.org/2000/svg"
          fill-rule="evenodd"
          clip-rule="evenodd"
          d="M7.622,53.825c-0.273,0.002-0.55,0.039-0.82-0.027  c-0.221-0.055-0.428-0.136-0.536-0.359c-0.055-0.113-0.049-0.21,0.105-0.213c0.626-0.012,1.253-0.023,1.859,0.175  c0.057,0.019,0.113,0.043,0.163,0.075c0.075,0.049,0.131,0.117,0.117,0.213c-0.016,0.107-0.11,0.131-0.194,0.134  C8.085,53.83,7.854,53.825,7.622,53.825z M8.35,53.669c-0.111-0.138-0.223-0.158-0.329-0.186c-0.318-0.084-0.643-0.116-0.97-0.101  c-0.105,0.005-0.289-0.082-0.301,0.075c-0.011,0.126,0.176,0.16,0.296,0.202c0.016,0.006,0.034,0.008,0.051,0.008  C7.499,53.669,7.9,53.669,8.35,53.669z"
        ></path>
        <path
          xmlns="http://www.w3.org/2000/svg"
          fill-rule="evenodd"
          clip-rule="evenodd"
          d="M82.478,56.022c0.051,2.797-2.341,5.297-5.33,5.272  c-2.872-0.024-5.242-2.435-5.237-5.302c0.005-2.919,2.484-5.365,5.475-5.271C80.124,50.81,82.53,53.145,82.478,56.022z   M78.636,56.026c0.013-0.801-0.597-1.44-1.389-1.458c-0.794-0.017-1.475,0.605-1.49,1.364c-0.018,0.829,0.591,1.507,1.358,1.517  C78.013,57.461,78.623,56.89,78.636,56.026z M74.225,53.483c0.087,0.018,0.128-0.016,0.161-0.055  c0.203-0.235,0.437-0.437,0.691-0.613c0.064-0.045,0.084-0.104,0.06-0.179c-0.094-0.294-0.181-0.591-0.283-0.882  c-0.06-0.17-0.194-0.222-0.35-0.125c-0.461,0.289-0.872,0.638-1.215,1.063c-0.07,0.088-0.109,0.201-0.01,0.276  C73.576,53.191,73.925,53.321,74.225,53.483z M72.076,55.701c0,0.051,0.001,0.103,0,0.154c-0.004,0.341,0.063,0.394,0.399,0.318  c0.227-0.051,0.454-0.102,0.682-0.147c0.121-0.024,0.191-0.079,0.224-0.21c0.229-0.941,0.199-1.02-0.635-1.51  c-0.25-0.146-0.366-0.105-0.459,0.177C72.158,54.878,72.092,55.285,72.076,55.701z M80.988,57.384  c-0.09-0.02-0.181-0.017-0.219,0.082c-0.126,0.331-0.465,0.601-0.472,0.924c-0.007,0.282,0.336,0.517,0.53,0.768  c0.147,0.192,0.261,0.197,0.416,0.017c0.333-0.39,0.584-0.831,0.764-1.311c0.087-0.231,0.015-0.35-0.226-0.384  C81.519,57.441,81.253,57.415,80.988,57.384z M76.545,60.727c-0.012-0.249-0.026-0.498-0.034-0.747  c-0.004-0.13-0.054-0.206-0.188-0.234c-0.27-0.058-0.532-0.14-0.778-0.269c-0.108-0.057-0.193-0.037-0.274,0.054  c-0.172,0.193-0.352,0.379-0.522,0.572c-0.188,0.211-0.161,0.35,0.097,0.485c0.422,0.221,0.867,0.379,1.337,0.463  C76.471,61.102,76.556,61.024,76.545,60.727z M73.479,57.466c-0.271,0.036-0.544,0.069-0.815,0.108  c-0.232,0.034-0.313,0.16-0.228,0.381c0.188,0.484,0.464,0.917,0.8,1.313c0.13,0.151,0.253,0.161,0.379-0.002  c0.173-0.225,0.345-0.449,0.521-0.672c0.07-0.091,0.094-0.168,0.012-0.273c-0.174-0.223-0.329-0.46-0.443-0.722  C73.66,57.499,73.588,57.453,73.479,57.466z M82.34,55.845c-0.04-0.536-0.095-1.023-0.26-1.49c-0.092-0.258-0.199-0.294-0.425-0.154  c-0.227,0.141-0.45,0.286-0.675,0.431c-0.073,0.047-0.144,0.088-0.118,0.201c0.076,0.342,0.06,0.744,0.242,1.011  c0.146,0.212,0.56,0.146,0.847,0.235c0.017,0.005,0.033,0.009,0.05,0.011C82.239,56.127,82.341,56.04,82.34,55.845z M77.966,60.377  c0,0.121-0.002,0.241,0,0.361c0.006,0.282,0.094,0.35,0.372,0.288c0.379-0.084,0.745-0.205,1.095-0.378  c0.553-0.273,0.563-0.326,0.14-0.773c-0.147-0.156-0.269-0.374-0.45-0.45c-0.208-0.088-0.404,0.134-0.611,0.206  C77.981,59.815,77.984,59.823,77.966,60.377z M80.093,53.421c0.023-0.011,0.063-0.025,0.101-0.045  c0.245-0.127,0.49-0.252,0.732-0.384c0.222-0.121,0.244-0.239,0.079-0.427c-0.338-0.385-0.731-0.703-1.166-0.972  c-0.183-0.113-0.311-0.074-0.377,0.132c-0.088,0.271-0.167,0.543-0.259,0.812c-0.041,0.119-0.014,0.193,0.091,0.259  c0.242,0.151,0.455,0.34,0.652,0.546C79.981,53.379,80.017,53.419,80.093,53.421z M77.184,50.908c-0.274-0.01-0.551-0.03-0.822,0.03  c-0.188,0.042-0.268,0.14-0.185,0.335c0.111,0.261,0.219,0.523,0.322,0.788c0.05,0.125,0.136,0.176,0.263,0.149  c0.257-0.052,0.512-0.048,0.769,0.002c0.151,0.03,0.239-0.04,0.293-0.183c0.09-0.242,0.196-0.478,0.287-0.719  c0.093-0.244,0.012-0.379-0.256-0.4C77.632,50.895,77.407,50.908,77.184,50.908z M80.851,56.452c0.012-0.218,0.013-0.22-0.209-0.271  c-0.26-0.061-0.52-0.118-0.78-0.177c-0.335-0.075-0.35-0.063-0.393,0.284c-0.012,0.094-0.021,0.189-0.051,0.279  c-0.051,0.159,0.022,0.225,0.166,0.245c0.246,0.037,0.492,0.075,0.74,0.104C80.805,56.976,80.823,56.957,80.851,56.452z   M79.848,58.535c-0.034-0.059-0.06-0.113-0.095-0.16c-0.182-0.238-0.371-0.471-0.547-0.714c-0.139-0.191-0.262-0.221-0.416-0.016  c-0.06,0.08-0.145,0.15-0.232,0.199c-0.177,0.1-0.142,0.205-0.032,0.325c0.201,0.222,0.399,0.446,0.605,0.664  c0.07,0.074,0.135,0.212,0.27,0.119C79.567,58.838,79.737,58.72,79.848,58.535z M75.38,54.589c-0.011-0.078-0.077-0.11-0.135-0.142  c-0.227-0.123-0.455-0.243-0.685-0.36c-0.397-0.204-0.397-0.203-0.608,0.198c-0.02,0.038-0.037,0.078-0.058,0.115  c-0.06,0.104-0.024,0.177,0.07,0.236c0.292,0.183,0.581,0.368,0.873,0.549c0.056,0.034,0.144,0.094,0.186,0.028  C75.153,55.014,75.263,54.799,75.38,54.589z M79.438,55.147c0.045-0.024,0.107-0.053,0.165-0.089  c0.189-0.118,0.377-0.238,0.564-0.358c0.417-0.268,0.421-0.293,0.12-0.699c-0.021-0.027-0.041-0.055-0.063-0.081  c-0.051-0.061-0.114-0.074-0.184-0.037c-0.334,0.175-0.668,0.351-1,0.529c-0.081,0.043-0.103,0.099-0.042,0.187  c0.102,0.148,0.19,0.305,0.284,0.458C79.315,55.108,79.346,55.162,79.438,55.147z M76.155,52.478  c-0.116,0.042-0.252,0.099-0.392,0.14c-0.174,0.05-0.204,0.152-0.147,0.311c0.071,0.203,0.134,0.409,0.198,0.614  c0.15,0.473,0.15,0.473,0.602,0.315c0.049-0.017,0.098-0.037,0.147-0.046c0.178-0.027,0.202-0.129,0.142-0.276  c-0.128-0.311-0.255-0.621-0.384-0.931C76.295,52.541,76.267,52.475,76.155,52.478z M78.288,53.962  c0.063,0.002,0.093-0.085,0.119-0.164c0.077-0.229,0.149-0.457,0.219-0.688c0.146-0.483,0.114-0.532-0.383-0.639  c-0.119-0.025-0.198-0.001-0.246,0.118c-0.132,0.327-0.268,0.651-0.4,0.978c-0.03,0.076-0.046,0.16,0.055,0.194  C77.846,53.828,78.044,53.886,78.288,53.962z M76.842,58.961c0.003,0,0.007,0,0.01,0c0,0.163-0.006,0.326,0.002,0.489  c0.005,0.107,0.041,0.216,0.174,0.215c0.199-0.002,0.409,0.07,0.59-0.073c0.016-0.013,0.017-0.049,0.018-0.073  c0.018-0.343,0.039-0.686,0.05-1.028c0.003-0.103-0.01-0.222-0.162-0.208c-0.713,0.063-0.703-0.187-0.681,0.627  C76.843,58.927,76.842,58.943,76.842,58.961z M73.837,57.036c0.228-0.025,0.416-0.044,0.604-0.068c0.61-0.08,0.602-0.079,0.486-0.69  c-0.036-0.187-0.128-0.228-0.285-0.196c-0.219,0.044-0.437,0.096-0.654,0.145c-0.499,0.113-0.494,0.112-0.374,0.604  C73.649,56.98,73.71,57.066,73.837,57.036z M76.084,58.024c-0.043-0.031-0.086-0.059-0.125-0.09  c-0.121-0.097-0.25-0.186-0.359-0.295c-0.111-0.111-0.19-0.084-0.273,0.023c-0.163,0.211-0.326,0.422-0.49,0.633  c-0.258,0.332-0.258,0.331,0.084,0.596c0.026,0.021,0.057,0.04,0.082,0.063c0.11,0.094,0.207,0.098,0.31-0.02  c0.21-0.239,0.431-0.471,0.643-0.708C75.999,58.177,76.028,58.113,76.084,58.024z M76.946,54.187  c-0.143,0.326,0.122,0.224,0.309,0.23c0.103,0.005,0.147-0.008,0.122-0.12c-0.086-0.373,0.037-0.715,0.178-1.049  c0.294-0.697,0.595-1.392,0.895-2.086c0.025-0.058,0.068-0.113-0.022-0.144c-0.081-0.027-0.093,0.03-0.113,0.096  c-0.199,0.642-0.484,1.25-0.729,1.874c-0.079,0.202-0.181,0.389-0.423,0.395c-0.262,0.006-0.359-0.198-0.441-0.405  c-0.242-0.616-0.486-1.23-0.726-1.848c-0.025-0.064-0.04-0.118-0.12-0.088c-0.109,0.04-0.023,0.093-0.004,0.138  c0.32,0.752,0.645,1.501,0.959,2.255C76.922,53.658,76.963,53.897,76.946,54.187z M79.153,54.052  c-0.317,0.005-0.498-0.221-0.411-0.518c0.2-0.685,0.404-1.369,0.668-2.033c0.023-0.059,0.076-0.101-0.011-0.145  c-0.092-0.047-0.095,0.021-0.112,0.081c-0.216,0.726-0.434,1.45-0.65,2.176c-0.103,0.343-0.246,0.665-0.53,0.897  c-0.118,0.098-0.081,0.166,0.025,0.202c0.101,0.035,0.168,0.302,0.312,0.073c0.138-0.219,0.313-0.395,0.533-0.515  c0.755-0.411,1.513-0.818,2.299-1.169c0.037-0.017,0.1-0.004,0.099-0.059c0-0.035-0.033-0.076-0.062-0.105  c-0.04-0.041-0.071-0.007-0.108,0.02c-0.588,0.408-1.249,0.687-1.872,1.033C79.267,54.028,79.187,54.041,79.153,54.052z   M74.522,57.174c0.188-0.008,0.355,0.035,0.44,0.212c0.08,0.17,0.035,0.336-0.083,0.481c-0.033,0.04-0.062,0.083-0.094,0.123  c-0.406,0.5-0.769,1.035-1.21,1.507c-0.043,0.046-0.058,0.079-0.011,0.128c0.052,0.054,0.075,0.032,0.112-0.023  c0.433-0.652,0.935-1.254,1.401-1.882c0.192-0.258,0.426-0.474,0.729-0.596c0.119-0.049,0.19-0.102,0.075-0.214  c-0.08-0.078-0.065-0.342-0.296-0.154c-0.227,0.183-0.497,0.269-0.782,0.307c-0.817,0.11-1.632,0.238-2.455,0.294  c-0.044,0.003-0.093-0.005-0.094,0.057c-0.001,0.032,0.014,0.067,0.029,0.097c0.031,0.058,0.066,0.017,0.106,0.005  C73.089,57.309,73.818,57.318,74.522,57.174z M75.604,53.688c-0.006,0.364-0.29,0.536-0.605,0.367  c-0.628-0.336-1.288-0.616-1.869-1.035c-0.085-0.062-0.103-0.007-0.136,0.038c-0.049,0.065-0.002,0.075,0.052,0.102  c0.731,0.364,1.462,0.729,2.189,1.103c0.263,0.135,0.489,0.32,0.643,0.581c0.041,0.07,0.08,0.196,0.169,0.059  c0.064-0.101,0.366-0.119,0.149-0.334c-0.176-0.174-0.317-0.371-0.396-0.599c-0.282-0.821-0.55-1.647-0.758-2.491  c-0.01-0.039,0.019-0.099-0.036-0.108c-0.035-0.006-0.081,0.021-0.115,0.043c-0.048,0.03-0.026,0.068-0.007,0.111  c0.303,0.649,0.465,1.347,0.692,2.021C75.597,53.602,75.6,53.662,75.604,53.688z M72.527,53.864  c-0.051,0.091-0.129,0.182,0.062,0.212c0.065,0.01,0.129,0.047,0.187,0.083c0.511,0.319,1.02,0.641,1.528,0.962  c0.182,0.114,0.352,0.247,0.302,0.491c-0.05,0.238-0.255,0.307-0.464,0.35c-0.647,0.134-1.296,0.267-1.944,0.394  c-0.071,0.014-0.122,0.028-0.104,0.105c0.019,0.084,0.075,0.034,0.12,0.023c0.753-0.177,1.505-0.356,2.259-0.527  c0.33-0.075,0.663-0.108,0.99,0.026c0.078,0.032,0.181,0.048,0.151-0.074c-0.029-0.118,0.183-0.316-0.09-0.354  c-0.215-0.029-0.433-0.059-0.619-0.164C74.087,54.933,73.313,54.407,72.527,53.864z M76.631,60.528c0.018,0,0.035,0,0.053,0  c0,0.146,0.001,0.293,0,0.438c-0.001,0.049-0.031,0.122,0.038,0.129c0.096,0.009,0.067-0.072,0.064-0.13  c-0.038-0.722-0.077-1.443-0.114-2.165c-0.02-0.365,0.013-0.722,0.183-1.055c0.033-0.064,0.138-0.169-0.03-0.182  c-0.122-0.008-0.293-0.246-0.37,0.03c-0.106,0.378-0.313,0.685-0.581,0.959c-0.517,0.529-0.981,1.109-1.528,1.609  c-0.071,0.064-0.041,0.1,0.021,0.136c0.042,0.025,0.074,0.061,0.12-0.014c0.39-0.635,0.943-1.131,1.443-1.672  c0.252-0.272,0.594-0.15,0.675,0.214c0.017,0.075,0.025,0.153,0.026,0.23C76.632,59.548,76.631,60.038,76.631,60.528z   M82.339,56.236c-0.089,0.01-0.168,0.037-0.237,0.022c-0.674-0.143-1.349-0.276-2.016-0.446c-0.36-0.093-0.438-0.482-0.134-0.688  c0.598-0.404,1.2-0.805,1.84-1.142c0.044-0.023,0.109-0.015,0.096-0.09c-0.006-0.031-0.023-0.072-0.048-0.085  c-0.048-0.026-0.072,0.028-0.106,0.051c-0.671,0.438-1.34,0.877-2.014,1.31c-0.249,0.16-0.523,0.268-0.821,0.279  c-0.172,0.007-0.186,0.086-0.143,0.214c0.035,0.104-0.017,0.289,0.217,0.204c0.301-0.11,0.61-0.087,0.917-0.016  c0.763,0.177,1.525,0.352,2.285,0.54C82.34,56.431,82.321,56.343,82.339,56.236z M79.452,57.468  c-0.004-0.237,0.223-0.409,0.511-0.378c0.23,0.025,0.46,0.06,0.689,0.094c0.45,0.066,0.899,0.136,1.349,0.206  c0.046,0.007,0.083,0.078,0.135,0.027c0.021-0.021,0.031-0.066,0.023-0.094c-0.018-0.064-0.079-0.05-0.129-0.056  c-0.632-0.072-1.264-0.138-1.895-0.22c-0.441-0.057-0.895-0.089-1.268-0.377c-0.09-0.069-0.177-0.147-0.222,0.024  c-0.029,0.109-0.263,0.228,0.006,0.343c0.315,0.136,0.556,0.367,0.76,0.641c0.453,0.605,0.908,1.21,1.36,1.816  c0.04,0.053,0.068,0.104,0.138,0.041c0.047-0.044,0.041-0.068-0.011-0.119c-0.509-0.503-0.896-1.105-1.339-1.663  C79.496,57.673,79.458,57.575,79.452,57.468z M77.848,59.722c-0.01-0.284,0.027-0.566,0.046-0.849  c0.012-0.189,0.077-0.338,0.254-0.412c0.176-0.073,0.332,0.004,0.444,0.127c0.474,0.521,0.974,1.02,1.4,1.581  c0.04,0.054,0.063,0.109,0.136,0.059c0.089-0.062,0.015-0.092-0.026-0.136c-0.535-0.57-1.071-1.14-1.603-1.714  c-0.213-0.23-0.375-0.492-0.445-0.803c-0.012-0.054,0.02-0.161-0.052-0.15c-0.123,0.02-0.242,0.078-0.355,0.136  c-0.074,0.038-0.027,0.104,0,0.157c0.158,0.308,0.196,0.638,0.178,0.978c-0.039,0.755-0.079,1.51-0.119,2.265  c-0.003,0.057-0.039,0.133,0.06,0.135c0.07,0.002,0.078-0.059,0.067-0.112C77.751,60.561,77.89,60.143,77.848,59.722z   M74.004,53.884c0.003-0.095-0.051-0.123-0.105-0.15c-0.252-0.129-0.504-0.26-0.757-0.387c-0.187-0.093-0.327-0.044-0.429,0.141  c-0.101,0.182-0.037,0.319,0.111,0.423c0.232,0.162,0.474,0.311,0.713,0.462c0.049,0.03,0.118,0.088,0.16,0.024  C73.812,54.227,73.909,54.045,74.004,53.884z M75.187,51.559c0.087,0.274,0.136,0.625,0.306,0.9c0.123,0.2,0.331-0.088,0.516-0.098  c0.067-0.004,0.188-0.02,0.149-0.155c-0.004-0.016-0.01-0.032-0.017-0.048c-0.111-0.27-0.221-0.54-0.336-0.808  c-0.066-0.155-0.186-0.228-0.352-0.179C75.291,51.221,75.192,51.331,75.187,51.559z M80.647,59.64c-0.003-0.014,0-0.062-0.021-0.097  c-0.17-0.289-0.396-0.538-0.598-0.804c-0.03-0.04-0.075-0.049-0.113-0.017c-0.149,0.129-0.299,0.258-0.44,0.395  c-0.06,0.057,0,0.108,0.04,0.152c0.197,0.215,0.393,0.432,0.594,0.644c0.087,0.091,0.198,0.155,0.322,0.081  C80.55,59.923,80.655,59.83,80.647,59.64z M72.462,57.227c0.31-0.042,0.598-0.078,0.885-0.12c0.093-0.014,0.177-0.059,0.129-0.171  c-0.076-0.181,0.009-0.408-0.164-0.557c-0.013-0.012-0.05,0.001-0.074,0.007c-0.292,0.065-0.585,0.129-0.876,0.199  c-0.183,0.043-0.249,0.17-0.215,0.349C72.181,57.116,72.296,57.214,72.462,57.227z M75.029,59.237  c-0.005-0.023-0.002-0.047-0.013-0.056c-0.157-0.132-0.313-0.268-0.478-0.39c-0.061-0.044-0.11,0.023-0.147,0.07  c-0.174,0.225-0.349,0.448-0.519,0.677c-0.107,0.144-0.115,0.281,0.039,0.406c0.153,0.125,0.313,0.161,0.461,0.013  c0.208-0.207,0.401-0.427,0.6-0.642C74.996,59.292,75.013,59.262,75.029,59.237z M81.945,57.131  c0.204,0.008,0.283-0.053,0.322-0.261c0.036-0.191-0.039-0.323-0.224-0.377c-0.156-0.047-0.317-0.079-0.478-0.111  c-0.547-0.113-0.547-0.112-0.61,0.436c-0.001,0.009-0.004,0.017-0.006,0.025c-0.025,0.11,0.031,0.164,0.131,0.178  C81.362,57.059,81.645,57.093,81.945,57.131z M81.71,53.574c-0.013-0.246-0.259-0.402-0.493-0.3  c-0.267,0.117-0.521,0.264-0.781,0.396c-0.087,0.043-0.112,0.096-0.057,0.184c0.079,0.122,0.157,0.246,0.227,0.374  c0.062,0.114,0.138,0.112,0.232,0.051c0.238-0.154,0.479-0.306,0.716-0.461C81.644,53.759,81.702,53.676,81.71,53.574z   M79.142,51.482c-0.003-0.193-0.071-0.283-0.205-0.314c-0.174-0.041-0.336-0.018-0.418,0.16c-0.122,0.266-0.227,0.538-0.34,0.808  c-0.043,0.102-0.021,0.183,0.093,0.185c0.199,0.003,0.425,0.307,0.563,0.084C79.009,52.121,79.056,51.76,79.142,51.482z   M77.586,60.413c0.023-0.597,0.023-0.592-0.482-0.569c-0.15,0.006-0.224,0.056-0.216,0.211c0.014,0.247,0.025,0.495,0.036,0.743  c0.008,0.206,0.071,0.344,0.318,0.332c0.238-0.013,0.338-0.135,0.343-0.357C77.588,60.652,77.586,60.532,77.586,60.413z   M78.03,59.126c-0.011,0.511-0.011,0.511,0.446,0.346c0.024-0.009,0.049-0.017,0.073-0.025c0.454-0.178,0.458-0.183,0.141-0.529  c-0.133-0.145-0.244-0.384-0.494-0.292C77.952,58.716,78.065,58.967,78.03,59.126z M76.485,59.429  c-0.011-0.171-0.021-0.342-0.031-0.513c-0.002-0.017-0.001-0.034-0.005-0.051c-0.04-0.228-0.216-0.311-0.389-0.166  c-0.195,0.164-0.476,0.358-0.474,0.572c0.001,0.174,0.372,0.199,0.585,0.278c0.04,0.015,0.083,0.02,0.124,0.033  C76.441,59.633,76.511,59.586,76.485,59.429z M80.855,55.627c-0.009-0.219-0.053-0.418-0.104-0.617  c-0.036-0.138-0.101-0.165-0.22-0.087c-0.149,0.1-0.302,0.193-0.453,0.291c-0.092,0.06-0.151,0.138-0.132,0.256  c0.02,0.116,0.097,0.181,0.202,0.207c0.165,0.042,0.336,0.064,0.499,0.114C80.826,55.847,80.92,55.83,80.855,55.627z M74.538,57.322  c-0.066,0.013-0.142,0.03-0.218,0.04c-0.562,0.073-0.562,0.072-0.269,0.557c0.26,0.429,0.26,0.429,0.555,0.043  c0.058-0.075,0.115-0.15,0.17-0.228c0.063-0.088,0.104-0.188,0.041-0.287C74.759,57.354,74.656,57.326,74.538,57.322z M80.02,57.254  c-0.135,0.016-0.285-0.042-0.362,0.102c-0.081,0.151,0.003,0.28,0.096,0.4c0.09,0.115,0.177,0.232,0.264,0.351  c0.077,0.104,0.143,0.101,0.218-0.008c0.123-0.177,0.224-0.365,0.323-0.557c0.088-0.168,0.045-0.229-0.141-0.232  C80.28,57.307,80.145,57.272,80.02,57.254z M77.151,52.344c-0.523-0.003-0.523-0.003-0.331,0.466  c0.003,0.009,0.007,0.016,0.011,0.023c0.072,0.159,0.089,0.394,0.313,0.393c0.232-0.001,0.269-0.233,0.339-0.404  C77.679,52.347,77.678,52.347,77.151,52.344z M73.542,55.67c-0.05,0.208,0.034,0.263,0.22,0.216  c0.158-0.039,0.319-0.067,0.478-0.109c0.103-0.027,0.197-0.078,0.212-0.199c0.014-0.112-0.037-0.21-0.135-0.26  c-0.209-0.105-0.41-0.403-0.605-0.308C73.521,55.103,73.593,55.447,73.542,55.67z M79.134,53.884  c0.233-0.054,0.448-0.196,0.671-0.32c0.072-0.04,0.05-0.108,0-0.15c-0.188-0.16-0.379-0.319-0.574-0.472  c-0.077-0.062-0.138-0.043-0.169,0.063c-0.058,0.196-0.134,0.389-0.18,0.588C78.841,53.767,78.927,53.869,79.134,53.884z   M75.461,53.68c-0.064-0.197-0.136-0.427-0.214-0.654c-0.027-0.078-0.091-0.072-0.147-0.031c-0.202,0.146-0.39,0.311-0.561,0.494  c-0.064,0.067-0.053,0.124,0.025,0.164c0.19,0.1,0.378,0.208,0.576,0.288C75.303,54.006,75.455,53.886,75.461,53.68z M76.807,54.047  c-0.001-0.047-0.012-0.146-0.136-0.112c-0.2,0.053-0.431,0.073-0.546,0.273c-0.047,0.081,0.258,0.332,0.381,0.327  C76.668,54.529,76.813,54.315,76.807,54.047z M75.456,55.378c0.218,0.011,0.342-0.065,0.329-0.278  c-0.011-0.172-0.081-0.319-0.249-0.385c-0.065-0.025-0.341,0.402-0.333,0.52C75.215,55.427,75.376,55.35,75.456,55.378z   M79.341,56.212c-0.001-0.122,0.02-0.231-0.14-0.239c-0.191-0.01-0.388,0.127-0.391,0.284c-0.003,0.153,0.202,0.426,0.34,0.396  C79.401,56.6,79.251,56.338,79.341,56.212z M75.232,56.081c-0.153-0.007-0.169,0.098-0.151,0.207  c0.026,0.169-0.018,0.385,0.191,0.461c0.117,0.042,0.354-0.223,0.349-0.357C75.615,56.238,75.414,56.077,75.232,56.081z   M76.297,57.532c0.005-0.213-0.114-0.313-0.286-0.301c-0.144,0.01-0.317,0.042-0.363,0.223c-0.018,0.07,0.406,0.426,0.479,0.4  C76.283,57.8,76.271,57.645,76.297,57.532z M78.85,55.278c0.252,0.003,0.314-0.027,0.313-0.123  c-0.002-0.122-0.279-0.525-0.359-0.504c-0.17,0.046-0.245,0.189-0.251,0.349C78.544,55.23,78.713,55.273,78.85,55.278z   M77.72,53.912c-0.229-0.001-0.205,0.12-0.205,0.219c0.001,0.191,0.061,0.361,0.284,0.348c0.18-0.011,0.315-0.138,0.38-0.308  C78.208,54.095,77.828,53.911,77.72,53.912z M78.188,57.474c0.037,0.115,0.009,0.274,0.168,0.328  c0.068,0.022,0.467-0.357,0.45-0.429c-0.041-0.175-0.199-0.199-0.339-0.208C78.27,57.153,78.212,57.298,78.188,57.474z   M77.261,58.171c0.102-0.08,0.301,0.053,0.329-0.155c0.022-0.161-0.179-0.387-0.315-0.385c-0.15,0.002-0.39,0.24-0.358,0.385  C76.957,58.207,77.146,58.1,77.261,58.171z"
        ></path>
        <path
          xmlns="http://www.w3.org/2000/svg"
          fill-rule="evenodd"
          clip-rule="evenodd"
          d="M25.039,50.77c2.916,0,5.256,2.34,5.278,5.24c0.021,2.923-2.408,5.354-5.349,5.313  c-2.886-0.04-5.199-2.381-5.225-5.256C19.716,53.093,22.249,50.678,25.039,50.77z M26.47,56.043  c0.015-0.788-0.632-1.447-1.432-1.459c-0.754-0.012-1.416,0.631-1.452,1.363c-0.048,0.985,0.757,1.531,1.396,1.544  C25.811,57.507,26.453,56.887,26.47,56.043z M22.978,52.694c-0.093-0.286-0.182-0.574-0.281-0.857  c-0.08-0.228-0.211-0.278-0.418-0.146c-0.429,0.276-0.815,0.604-1.14,1.001c-0.131,0.16-0.109,0.296,0.086,0.395  c0.253,0.129,0.506,0.259,0.754,0.396c0.101,0.056,0.168,0.045,0.246-0.04c0.197-0.217,0.417-0.41,0.657-0.579  C22.94,52.824,22.995,52.78,22.978,52.694z M24.961,52.227c0.146,0,0.292-0.005,0.438,0.001c0.118,0.005,0.197-0.036,0.242-0.148  c0.107-0.271,0.222-0.539,0.327-0.812c0.064-0.166-0.013-0.276-0.174-0.304c-0.538-0.093-1.078-0.089-1.613,0.009  c-0.181,0.034-0.261,0.154-0.168,0.345c0.056,0.115,0.1,0.236,0.15,0.355C24.389,52.217,24.389,52.217,24.961,52.227z   M19.892,55.943c-0.018,0.239,0.086,0.329,0.325,0.278c0.21-0.044,0.417-0.109,0.63-0.134c0.259-0.029,0.364-0.151,0.377-0.411  c0.015-0.279,0.188-0.61,0.087-0.82c-0.109-0.226-0.454-0.339-0.7-0.496c-0.287-0.182-0.425-0.125-0.521,0.21  C19.961,55.019,19.91,55.479,19.892,55.943z M24.368,60.457c-0.007,0-0.014,0-0.021,0c0-0.129-0.009-0.259,0.002-0.387  c0.017-0.19-0.063-0.28-0.251-0.31c-0.256-0.041-0.496-0.144-0.728-0.257c-0.11-0.054-0.186-0.046-0.268,0.051  c-0.179,0.21-0.373,0.405-0.551,0.615c-0.146,0.173-0.123,0.307,0.077,0.419c0.462,0.26,0.958,0.426,1.48,0.509  c0.167,0.026,0.265-0.045,0.26-0.228C24.365,60.732,24.368,60.595,24.368,60.457z M28.85,57.413c-0.133-0.02-0.235,0.012-0.292,0.15  c-0.107,0.264-0.256,0.505-0.425,0.733c-0.061,0.083-0.058,0.15,0.006,0.23c0.183,0.229,0.355,0.465,0.54,0.69  c0.117,0.143,0.265,0.136,0.376,0.004c0.353-0.417,0.63-0.881,0.798-1.402c0.05-0.155-0.01-0.271-0.188-0.296  C29.395,57.485,29.122,57.449,28.85,57.413z M25.776,60.719c-0.008,0.293,0.086,0.387,0.357,0.339  c0.505-0.089,0.977-0.276,1.418-0.534c0.166-0.098,0.2-0.231,0.063-0.384c-0.189-0.211-0.381-0.421-0.573-0.631  c-0.053-0.058-0.11-0.123-0.198-0.075c-0.311,0.17-0.707,0.193-0.964,0.408c-0.192,0.161-0.034,0.526-0.097,0.795  C25.776,60.67,25.777,60.705,25.776,60.719z M27.943,53.438c0.3-0.164,0.652-0.289,0.947-0.517c0.096-0.074,0.059-0.19-0.017-0.276  c-0.354-0.404-0.755-0.755-1.221-1.025c-0.161-0.094-0.3-0.063-0.364,0.135c-0.084,0.263-0.166,0.525-0.254,0.786  c-0.042,0.125-0.013,0.215,0.096,0.289c0.229,0.154,0.439,0.332,0.63,0.531C27.803,53.403,27.844,53.451,27.943,53.438z   M21.383,57.484c-0.315,0.043-0.589,0.073-0.86,0.119c-0.284,0.049-0.348,0.161-0.238,0.435c0.185,0.459,0.452,0.869,0.769,1.249  c0.136,0.162,0.272,0.163,0.403-0.009c0.173-0.225,0.346-0.451,0.521-0.674c0.061-0.077,0.079-0.147,0.011-0.23  c-0.198-0.241-0.346-0.514-0.482-0.793C21.471,57.51,21.42,57.478,21.383,57.484z M30.149,55.655  c-0.018-0.434-0.106-0.854-0.243-1.265c-0.084-0.25-0.2-0.289-0.431-0.154c-0.156,0.092-0.297,0.212-0.46,0.287  c-0.277,0.128-0.392,0.297-0.259,0.603c0.053,0.122,0.066,0.269,0.067,0.405c0.002,0.3,0.133,0.451,0.44,0.473  c0.187,0.014,0.37,0.077,0.556,0.113c0.24,0.047,0.314-0.012,0.329-0.255C30.152,55.793,30.149,55.725,30.149,55.655z   M25.479,58.979c0.001,0,0.002,0,0.003,0c0-0.188,0.046-0.393-0.011-0.562c-0.087-0.259-0.327-0.055-0.496-0.089  c-0.284-0.059-0.371,0.04-0.328,0.338c0.034,0.239,0.048,0.479,0.034,0.718c-0.016,0.259,0.065,0.346,0.331,0.334  c0.462-0.021,0.464-0.007,0.466-0.481C25.479,59.151,25.479,59.065,25.479,58.979z M21.717,57.063  c0.245-0.031,0.535-0.062,0.824-0.106c0.335-0.052,0.333-0.057,0.26-0.382c-0.021-0.092-0.046-0.186-0.047-0.278  c-0.002-0.214-0.106-0.24-0.286-0.191c-0.215,0.059-0.436,0.098-0.654,0.146c-0.496,0.111-0.496,0.111-0.374,0.612  c0.004,0.017,0.01,0.033,0.013,0.05C21.479,57.033,21.544,57.097,21.717,57.063z M28.69,56.502c0.035-0.189-0.061-0.266-0.232-0.299  c-0.243-0.049-0.483-0.112-0.726-0.165c-0.378-0.082-0.378-0.081-0.438,0.295c-0.014,0.085-0.02,0.172-0.046,0.253  c-0.048,0.151,0.007,0.231,0.157,0.253c0.339,0.047,0.678,0.093,1.017,0.135c0.124,0.016,0.192-0.046,0.211-0.169  C28.648,56.703,28.67,56.603,28.69,56.502z M26.797,57.509c-0.03,0.025-0.069,0.058-0.106,0.092  c-0.095,0.087-0.177,0.194-0.285,0.26c-0.196,0.117-0.156,0.232-0.031,0.367c0.146,0.157,0.291,0.315,0.435,0.475  c0.348,0.387,0.461,0.38,0.797-0.035c0.059-0.072,0.07-0.127,0.011-0.202c-0.221-0.285-0.438-0.573-0.659-0.858  C26.923,57.56,26.879,57.516,26.797,57.509z M26.548,52.869c0.018-0.15-0.033-0.197-0.099-0.224  c-0.135-0.053-0.274-0.097-0.411-0.147c-0.115-0.043-0.173,0.007-0.215,0.111c-0.12,0.303-0.248,0.603-0.369,0.905  c-0.038,0.095-0.097,0.228,0.039,0.263c0.225,0.057,0.416,0.237,0.668,0.188c0.012-0.003,0.025-0.025,0.03-0.04  C26.318,53.553,26.444,53.18,26.548,52.869z M27.274,55.172c0.034-0.019,0.097-0.047,0.155-0.083  c0.183-0.113,0.364-0.229,0.545-0.346c0.449-0.288,0.445-0.288,0.131-0.734c-0.086-0.122-0.16-0.15-0.295-0.074  c-0.277,0.156-0.563,0.297-0.845,0.445c-0.052,0.028-0.136,0.063-0.142,0.104c-0.032,0.246,0.222,0.363,0.276,0.577  C27.116,55.122,27.15,55.194,27.274,55.172z M23.886,58.109c0.006-0.086-0.046-0.107-0.086-0.138  c-0.115-0.09-0.244-0.166-0.341-0.272c-0.145-0.16-0.238-0.106-0.343,0.037c-0.137,0.187-0.282,0.368-0.424,0.551  c-0.291,0.374-0.285,0.365,0.097,0.673c0.157,0.126,0.257,0.116,0.383-0.033c0.194-0.229,0.405-0.443,0.606-0.667  C23.823,58.21,23.857,58.15,23.886,58.109z M22.057,53.953c-0.161,0.088-0.213,0.266-0.305,0.414  c-0.091,0.147-0.06,0.245,0.094,0.333c0.208,0.118,0.405,0.257,0.606,0.388c0.361,0.235,0.361,0.235,0.572-0.149  c0.037-0.068,0.073-0.139,0.122-0.196c0.1-0.119,0.064-0.196-0.06-0.261c-0.304-0.158-0.607-0.318-0.912-0.477  C22.145,53.989,22.112,53.978,22.057,53.953z M24.574,53.658c-0.155-0.368-0.304-0.725-0.457-1.078  c-0.027-0.063-0.095-0.081-0.155-0.061c-0.162,0.055-0.322,0.115-0.48,0.18c-0.077,0.032-0.086,0.096-0.061,0.173  c0.109,0.334,0.214,0.669,0.324,1.003c0.031,0.095,0.091,0.197,0.203,0.13C24.147,53.886,24.436,53.917,24.574,53.658z   M25.814,54.638c0.082,0.063,0.151,0.102,0.202,0.157c0.121,0.133,0.194,0.138,0.298-0.034c0.16-0.262,0.411-0.437,0.684-0.574  c0.707-0.356,1.396-0.747,2.122-1.067c0.037-0.016,0.094-0.015,0.076-0.077c-0.009-0.031-0.035-0.059-0.058-0.084  c-0.043-0.047-0.066-0.006-0.102,0.02c-0.599,0.424-1.266,0.727-1.917,1.054c-0.343,0.173-0.653-0.091-0.547-0.462  c0.197-0.693,0.391-1.39,0.681-2.053c0.016-0.038,0.063-0.068,0.016-0.108c-0.024-0.021-0.061-0.036-0.092-0.037  c-0.062-0.003-0.051,0.052-0.063,0.092c-0.227,0.758-0.452,1.517-0.683,2.273C26.323,54.089,26.15,54.401,25.814,54.638z   M29.649,53.807c-0.024,0.021-0.042,0.038-0.063,0.053c-0.654,0.477-1.35,0.889-2.026,1.332c-0.239,0.156-0.5,0.272-0.796,0.266  c-0.174-0.005-0.216,0.047-0.188,0.229c0.032,0.204,0.087,0.275,0.294,0.188c0.091-0.038,0.203-0.042,0.304-0.036  c0.951,0.057,1.85,0.37,2.774,0.558c0.057,0.012,0.101,0.076,0.165,0.046c0.014-0.007,0.022-0.047,0.018-0.068  c-0.017-0.093-0.096-0.076-0.162-0.09c-0.673-0.139-1.347-0.277-2.019-0.424c-0.179-0.038-0.317-0.146-0.345-0.34  c-0.026-0.182,0.072-0.313,0.217-0.409c0.215-0.143,0.433-0.282,0.652-0.417c0.381-0.234,0.764-0.465,1.147-0.693  c0.057-0.034,0.106-0.063,0.076-0.138C29.691,53.842,29.668,53.827,29.649,53.807z M23.437,53.709  c0.006,0.372-0.284,0.538-0.637,0.36c-0.599-0.302-1.186-0.627-1.778-0.939c-0.053-0.028-0.114-0.139-0.167-0.049  c-0.06,0.102,0.069,0.109,0.128,0.141c0.672,0.347,1.346,0.689,2.02,1.035c0.287,0.147,0.538,0.339,0.706,0.622  c0.028,0.047,0.05,0.141,0.124,0.094c0.107-0.068,0.206-0.155,0.29-0.252c0.043-0.049-0.037-0.082-0.073-0.112  c-0.24-0.201-0.385-0.466-0.475-0.755c-0.247-0.786-0.523-1.564-0.706-2.369c-0.02-0.086-0.039-0.105-0.111-0.066  c-0.05,0.027-0.114,0.039-0.064,0.13c0.349,0.639,0.471,1.357,0.717,2.033C23.426,53.629,23.431,53.681,23.437,53.709z   M23.47,55.698c0.046-0.129-0.049-0.141-0.157-0.136c-0.27,0.011-0.515-0.085-0.732-0.22c-0.716-0.444-1.435-0.884-2.117-1.381  c-0.046-0.034-0.086-0.104-0.138-0.011c-0.037,0.067-0.01,0.106,0.059,0.14c0.627,0.307,1.187,0.726,1.787,1.08  c0.173,0.102,0.303,0.25,0.263,0.462c-0.039,0.208-0.207,0.301-0.408,0.342c-0.656,0.136-1.312,0.276-1.968,0.413  c-0.058,0.013-0.14,0.009-0.114,0.096c0.021,0.069,0.085,0.022,0.131,0.012c0.763-0.174,1.524-0.351,2.288-0.521  c0.263-0.059,0.531-0.058,0.794-0.004C23.421,56.024,23.457,56.001,23.47,55.698z M27.753,57.126  c0.068,0.005,0.138,0.003,0.206,0.015c0.635,0.109,1.281,0.145,1.909,0.297c0.076,0.019,0.118,0.009,0.132-0.068  c0.012-0.063-0.031-0.063-0.077-0.067c-0.691-0.08-1.382-0.162-2.073-0.242c-0.42-0.049-0.837-0.107-1.185-0.383  c-0.037-0.029-0.085-0.11-0.121-0.063c-0.082,0.108-0.147,0.232-0.196,0.358c-0.023,0.061,0.065,0.063,0.109,0.081  c0.246,0.099,0.46,0.25,0.618,0.454c0.517,0.666,1.018,1.345,1.524,2.019c0.028,0.037,0.025,0.11,0.1,0.088  c0.021-0.006,0.039-0.033,0.05-0.055c0.028-0.058-0.01-0.088-0.048-0.128c-0.475-0.512-0.876-1.082-1.3-1.634  c-0.112-0.146-0.157-0.312-0.069-0.482C27.418,57.146,27.581,57.118,27.753,57.126z M26.334,51.065  c-0.081-0.016-0.162-0.086-0.2,0.062c-0.174,0.677-0.504,1.294-0.745,1.945c-0.07,0.19-0.194,0.342-0.406,0.346  c-0.216,0.003-0.334-0.154-0.408-0.342c-0.25-0.631-0.5-1.262-0.747-1.895c-0.022-0.058-0.029-0.134-0.11-0.103  c-0.09,0.034-0.027,0.1-0.006,0.149c0.285,0.673,0.569,1.346,0.859,2.017c0.145,0.337,0.249,0.679,0.197,1.05  c-0.024,0.172,0.089,0.162,0.191,0.15c0.092-0.011,0.256,0.064,0.229-0.139c-0.054-0.402,0.079-0.764,0.231-1.121  C25.719,52.482,25.994,51.77,26.334,51.065z M21.36,59.635c0.133,0.011,0.152-0.043,0.182-0.082c0.463-0.609,0.925-1.22,1.39-1.827  c0.174-0.228,0.37-0.449,0.641-0.544c0.243-0.084,0.187-0.17,0.093-0.335c-0.091-0.159-0.15-0.164-0.279-0.045  c-0.113,0.105-0.265,0.155-0.412,0.208c-0.394,0.139-0.811,0.145-1.217,0.201c-0.519,0.072-1.041,0.121-1.561,0.178  c-0.044,0.005-0.094,0.002-0.102,0.053c-0.005,0.039,0.003,0.09,0.026,0.12c0.038,0.051,0.074,0.001,0.106-0.021  c0.088-0.061,0.192-0.074,0.293-0.088c0.596-0.081,1.192-0.158,1.788-0.24c0.195-0.027,0.37,0.009,0.472,0.186  s0.044,0.349-0.075,0.502c-0.179,0.231-0.359,0.462-0.538,0.692C21.907,58.928,21.647,59.263,21.36,59.635z M22.113,60.26  c0.048,0.035,0.116,0.158,0.18,0.03c0.112-0.224,0.302-0.373,0.459-0.554c0.316-0.363,0.647-0.714,0.973-1.069  c0.127-0.14,0.285-0.199,0.466-0.133c0.175,0.064,0.234,0.212,0.241,0.391c0.011,0.257,0.036,0.514,0.046,0.771  c0.016,0.438,0.026,0.877,0.036,1.315c0.001,0.054-0.005,0.116,0.06,0.121c0.089,0.007,0.052-0.063,0.05-0.109  c-0.037-0.627-0.078-1.253-0.109-1.88c-0.024-0.481-0.063-0.967,0.191-1.411c0.03-0.053,0.03-0.108-0.029-0.129  c-0.112-0.041-0.231-0.101-0.343-0.092c-0.101,0.008-0.05,0.146-0.079,0.223c-0.058,0.153-0.126,0.3-0.215,0.438  c-0.146,0.228-0.342,0.41-0.523,0.605C23.057,59.274,22.612,59.786,22.113,60.26z M25.526,61.137  c0.159,0.01,0.123-0.093,0.125-0.202c0.012-0.679,0.032-1.358,0.06-2.037c0.007-0.179,0.081-0.344,0.269-0.405  c0.181-0.059,0.342,0.005,0.466,0.144c0.458,0.513,0.915,1.027,1.37,1.544c0.038,0.043,0.058,0.13,0.131,0.077  c0.1-0.072-0.003-0.112-0.043-0.155c-0.521-0.561-1.046-1.118-1.565-1.682c-0.211-0.229-0.389-0.485-0.45-0.8  c-0.035-0.18-0.121-0.17-0.255-0.106c-0.114,0.054-0.261,0.056-0.151,0.256c0.143,0.261,0.193,0.554,0.18,0.849  C25.622,59.457,25.571,60.296,25.526,61.137z M24.728,60.414c0.004,0,0.009,0,0.014,0c0,0.146-0.006,0.291,0.001,0.437  c0.01,0.18,0.077,0.315,0.29,0.318c0.199,0.004,0.326-0.074,0.36-0.283c0.046-0.28,0.036-0.563,0.045-0.845  c0.004-0.126-0.052-0.179-0.183-0.19c-0.539-0.049-0.539-0.052-0.527,0.486C24.728,60.362,24.728,60.389,24.728,60.414z   M20.871,53.34c-0.217-0.015-0.29,0.102-0.345,0.232c-0.063,0.149-0.01,0.272,0.114,0.358c0.204,0.141,0.422,0.262,0.622,0.408  c0.171,0.125,0.269,0.147,0.378-0.084c0.2-0.421,0.219-0.417-0.19-0.635C21.249,53.513,21.056,53.379,20.871,53.34z M26.633,51.167  c-0.133,0.006-0.241,0.074-0.301,0.217c-0.109,0.261-0.22,0.521-0.327,0.783c-0.021,0.052-0.07,0.12,0.015,0.152  c0.184,0.071,0.37,0.137,0.559,0.191c0.073,0.021,0.099-0.056,0.117-0.112c0.09-0.286,0.185-0.571,0.261-0.861  C27.012,51.326,26.872,51.167,26.633,51.167z M20.436,57.236c0.211-0.028,0.492-0.065,0.773-0.104  c0.042-0.006,0.107-0.015,0.1-0.061c-0.031-0.21-0.063-0.422-0.12-0.625c-0.021-0.077-0.121-0.031-0.186-0.018  c-0.244,0.053-0.486,0.11-0.73,0.159c-0.207,0.042-0.328,0.143-0.296,0.372C20.009,57.189,20.16,57.253,20.436,57.236z   M23.024,51.605c0.075,0.245,0.17,0.558,0.268,0.869c0.022,0.069,0.074,0.091,0.143,0.066c0.162-0.058,0.324-0.115,0.485-0.176  c0.087-0.033,0.083-0.1,0.053-0.17c-0.116-0.278-0.227-0.559-0.351-0.833c-0.062-0.136-0.17-0.218-0.334-0.166  C23.124,51.247,23.021,51.349,23.024,51.605z M22.009,60.083c0.024-0.009,0.096-0.012,0.132-0.049  c0.234-0.238,0.46-0.483,0.688-0.728c0.032-0.034,0.046-0.08,0.006-0.114c-0.15-0.127-0.3-0.255-0.457-0.374  c-0.066-0.05-0.109,0.012-0.146,0.059c-0.182,0.238-0.375,0.47-0.542,0.718C21.545,59.81,21.709,60.076,22.009,60.083z   M29.199,53.274c-0.122,0.002-0.916,0.38-0.987,0.459c-0.024,0.026-0.05,0.057-0.031,0.089c0.098,0.171,0.194,0.343,0.302,0.506  c0.042,0.064,0.11,0.022,0.161-0.01c0.252-0.161,0.506-0.321,0.754-0.489c0.121-0.081,0.154-0.203,0.097-0.34  C29.438,53.352,29.344,53.262,29.199,53.274z M28.484,59.663c-0.031-0.202-0.212-0.351-0.344-0.526  c-0.343-0.461-0.342-0.454-0.76-0.071c-0.107,0.098-0.095,0.166-0.013,0.255c0.192,0.209,0.38,0.422,0.577,0.626  c0.091,0.095,0.21,0.124,0.33,0.055C28.387,59.936,28.483,59.848,28.484,59.663z M29.633,57.142  c0.224,0.004,0.416,0.033,0.455-0.227c0.037-0.248-0.047-0.362-0.325-0.425c-0.125-0.028-0.251-0.051-0.377-0.078  c-0.522-0.114-0.516-0.113-0.6,0.403c-0.026,0.161,0.033,0.221,0.178,0.238C29.202,57.083,29.438,57.116,29.633,57.142z   M26.096,58.618c-0.134,0.026-0.205,0.116-0.217,0.247c-0.014,0.137-0.009,0.274-0.023,0.411c-0.036,0.368-0.023,0.381,0.319,0.269  c0.024-0.008,0.048-0.018,0.072-0.026c0.7-0.268,0.583-0.214,0.164-0.689C26.326,58.732,26.238,58.637,26.096,58.618z   M22.322,57.368c-0.17,0.02-0.34,0.039-0.511,0.059c-0.152,0.017-0.165,0.107-0.103,0.217c0.106,0.186,0.223,0.366,0.337,0.547  c0.074,0.116,0.151,0.125,0.236,0.006c0.09-0.126,0.189-0.245,0.28-0.37c0.069-0.096,0.161-0.189,0.094-0.324  C22.585,57.359,22.453,57.363,22.322,57.368z M27.81,57.274c-0.167-0.014-0.269,0.013-0.337,0.122  c-0.066,0.107-0.018,0.198,0.037,0.287c0.041,0.065,0.089,0.127,0.135,0.188c0.34,0.446,0.345,0.449,0.616-0.063  c0.267-0.505,0.245-0.434-0.246-0.499C27.93,57.299,27.847,57.281,27.81,57.274z M22.998,53.977  c0.204,0.008,0.272-0.074,0.269-0.219c-0.006-0.253-0.121-0.479-0.191-0.715c-0.025-0.086-0.083-0.065-0.14-0.023  c-0.209,0.15-0.404,0.316-0.582,0.502c-0.037,0.038-0.084,0.093-0.022,0.128C22.561,53.777,22.786,53.921,22.998,53.977z   M26.707,53.618c-0.005,0.243,0.131,0.359,0.318,0.286c0.229-0.09,0.559-0.171,0.616-0.363c0.059-0.195-0.279-0.316-0.443-0.471  c-0.043-0.041-0.097-0.069-0.147-0.103c-0.078-0.052-0.129-0.024-0.156,0.058C26.827,53.236,26.761,53.448,26.707,53.618z   M24.296,59.195c-0.022-0.165,0.06-0.404-0.165-0.506c-0.215-0.098-0.318,0.111-0.436,0.237c-0.394,0.422-0.392,0.425,0.158,0.609  C24.301,59.688,24.305,59.685,24.296,59.195z M28.703,55.634c-0.046-0.216-0.09-0.433-0.139-0.648  c-0.024-0.104-0.081-0.113-0.167-0.055c-0.163,0.109-0.338,0.202-0.494,0.32c-0.22,0.168-0.188,0.362,0.075,0.453  c0.161,0.056,0.331,0.081,0.497,0.12C28.632,55.861,28.704,55.801,28.703,55.634z M21.362,55.696c-0.012,0.2,0.055,0.276,0.261,0.21  c0.138-0.044,0.285-0.062,0.426-0.098c0.102-0.025,0.196-0.072,0.221-0.189c0.028-0.128-0.038-0.216-0.136-0.282  c-0.149-0.101-0.306-0.19-0.453-0.295c-0.138-0.097-0.195-0.05-0.219,0.099C21.432,55.326,21.396,55.511,21.362,55.696z   M25.449,52.512c0.009-0.091-0.043-0.105-0.095-0.112c-0.127-0.016-0.255-0.039-0.383-0.041c-0.502-0.007-0.519,0.018-0.332,0.464  c0.046,0.11,0.09,0.225,0.158,0.322c0.086,0.126,0.217,0.157,0.33,0.042C25.312,52.995,25.344,52.726,25.449,52.512z M23.62,55.116  c-0.019-0.142-0.081-0.319-0.238-0.368c-0.124-0.039-0.157,0.15-0.226,0.24c-0.051,0.067-0.083,0.15-0.115,0.229  c-0.019,0.045-0.047,0.109,0.01,0.14c0.133,0.072,0.276,0.089,0.422,0.033C23.585,55.348,23.622,55.258,23.62,55.116z   M23.828,57.263c-0.141,0.023-0.291,0.052-0.351,0.204c-0.031,0.078,0.395,0.443,0.488,0.412c0.157-0.054,0.157-0.212,0.165-0.342  C24.139,57.342,24.009,57.271,23.828,57.263z M26.027,57.525c0.029,0.104-0.001,0.259,0.161,0.298  c0.079,0.02,0.483-0.345,0.464-0.417c-0.053-0.19-0.237-0.225-0.387-0.226C26.074,57.179,26.027,57.343,26.027,57.525z   M22.983,56.09c-0.028-0.005-0.065,0.008-0.089,0.052c-0.037,0.065,0.066,0.563,0.125,0.619c0.059,0.058,0.117,0.028,0.163-0.004  c0.129-0.093,0.309-0.17,0.261-0.369C23.391,56.17,23.189,56.133,22.983,56.09z M26.772,55.32c0.063-0.029,0.198,0.025,0.215-0.127  c0.013-0.124-0.293-0.556-0.371-0.522c-0.161,0.07-0.26,0.229-0.25,0.388C26.379,55.265,26.562,55.315,26.772,55.32z M24.613,54.167  c-0.005-0.109-0.002-0.207-0.146-0.201c-0.16,0.007-0.519,0.198-0.515,0.28c0.006,0.114,0.25,0.315,0.38,0.302  C24.57,54.523,24.6,54.343,24.613,54.167z M25.345,54.141c0.014,0.179,0.025,0.358,0.271,0.358c0.16,0,0.444-0.215,0.393-0.308  c-0.11-0.201-0.342-0.2-0.537-0.241C25.315,53.917,25.361,54.059,25.345,54.141z M25.023,58.185  c0.139-0.052,0.339,0.074,0.391-0.146c0.035-0.147-0.174-0.368-0.32-0.367c-0.16,0-0.356,0.195-0.354,0.378  C24.744,58.28,24.943,58.107,25.023,58.185z M27.157,56.263c-0.038-0.093,0.066-0.275-0.144-0.256  c-0.169,0.016-0.353,0.056-0.366,0.285c-0.009,0.159,0.216,0.43,0.347,0.391C27.2,56.62,27.104,56.409,27.157,56.263z"
        ></path>
        <path
          xmlns="http://www.w3.org/2000/svg"
          fill-rule="evenodd"
          clip-rule="evenodd"
          d="M78.19,56.003c0.004,0.549-0.426,0.993-0.969,0.999  c-0.554,0.006-1.014-0.443-1.013-0.989c0.001-0.534,0.451-0.985,0.989-0.993C77.725,55.011,78.186,55.468,78.19,56.003z   M77.215,55.343c-0.402-0.003-0.684,0.275-0.684,0.676c0,0.366,0.305,0.681,0.663,0.686c0.361,0.004,0.7-0.331,0.698-0.691  C77.891,55.645,77.588,55.346,77.215,55.343z"
        ></path>
        <path
          xmlns="http://www.w3.org/2000/svg"
          fill-rule="evenodd"
          clip-rule="evenodd"
          d="M25.045,55.067c0.556,0.003,0.972,0.424,0.973,0.984  c0.001,0.535-0.448,0.974-0.998,0.974c-0.536-0.001-0.98-0.457-0.972-0.999C24.056,55.472,24.479,55.064,25.045,55.067z   M25.705,56.053c0.003-0.397-0.282-0.697-0.667-0.7c-0.385-0.004-0.675,0.293-0.677,0.693c-0.002,0.391,0.268,0.671,0.655,0.679  C25.415,56.733,25.701,56.454,25.705,56.053z"
        ></path>
      </g>
    </svg>