<svg
      width="200"
      height="150"
      viewBox="0 0 200 200"
      xmlns="http://www.w3.org/2000/svg"
    >
   <g id="SvgjsG10036" featurekey="hmhgWD-0" transform="matrix(-1.5657622244705431,0,0,1.5657622244705431,153.69989724937594,-51.89510078785987)" fill="#ffffff"><path xmlns="http://www.w3.org/2000/svg" d="M69.167,52.73l-5.141-1.101l-0.615,1.028l-3.165,5.481l1.168-0.103l2.268-0.206l0.051-0.004l1.077-1.011l-0.987,0.888  l1.079-0.973L69.167,52.73z M76.231,53.52l0.163-0.444l0.287-0.582l0.012-0.024l0.16-0.227l0.034-0.062l0.423-0.604l0.09-0.106  l0.014-0.019l0.012-0.011l0.348-0.409l0.484-0.473l0.504-0.421l1.008-0.644l0.021-0.013l1.01-0.462l0.925-0.287l0.405-0.074  l-5.466-2.126l-0.796,0.517l-0.932,0.704l-1.781,1.523l-1.711,1.657l-0.008,0.008l-1.212,1.397l3.323,0.667L76.231,53.52z   M81.157,45.641l2.315-0.081l2.39,0.021l2.502,0.143l2.615,0.267l0.686,0.11l-1.915-0.49l-2.118-0.337l-2.202-0.184l-2.242-0.062  l-2.275,0.031l-2.244,0.093l-2.172,0.111l-1.132,0.061l0.354,0.157l0.551,0.31l0.455,0.227l2.175-0.214L81.157,45.641z   M40.167,46.223l0.603,0.258c0.068,0.022,0.115,0.086,0.115,0.162c0,0-0.002,0.021-0.002,0.022l-0.048,0.545l-0.003,0.113  l0.616-0.05l0.42-0.055v-0.359c0-0.101,0.084-0.183,0.183-0.183l0.908-0.028l0.535-0.034l0.051-0.217l0.041-0.293l-0.026,0.024  l-0.021-0.291l-0.015-0.084l-0.41-0.1l-0.59-0.072h-0.631l-0.364,0.017l-0.308,0.04l0.026,0.011l-0.643,0.328L40.167,46.223z   M10.474,59.712l-0.034,0.003l0.002-0.005L10.474,59.712l0.01-0.01l0.006-0.011l-0.041,0.01l-0.007,0.008l0.004-0.007l-2.083,0.492  c-0.427,0.62-0.252,1.035-0.283,1.605l1.203-1.029L10.474,59.712z M8.836,59.604l1.846-0.437c0.003-0.001,0.008-0.001,0.011-0.002  l-0.003-0.016l-0.014-0.059l-0.033-0.052l-0.013,0.025l-0.165-0.187l-0.518-0.652c-0.027,0.004-0.054,0.009-0.084,0.009H8.025  C8.401,58.679,9.168,59.064,8.836,59.604z M32.209,50.999l-1.112-0.551l-1.135-0.407l-1.115-0.286l-1.012-0.165l-0.849-0.08  l-0.348-0.021h-0.276c-0.024,0-0.045-0.012-0.067-0.021l-0.182,0.361c2.361-0.125,4.72,0.765,6.191,2.696  c0.03-0.029,0.066-0.051,0.108-0.051l1.375-0.156L33.195,51.7l0.002-0.003l-0.481-0.38l-0.498-0.355l-0.001,0.004l0.007,0.007  l-0.008-0.004L32.209,50.999z M25.68,49.869c0-0.002-0.002-0.004-0.002-0.007c0-0.031,0.004-0.063,0.021-0.09l0.182-0.363  l-0.406,0.007l-0.908,0.113l-0.828,0.204l-0.755,0.276l-0.704,0.325l-0.622,0.385l-0.576,0.429l-0.522,0.425l0.021,0.007  l-0.006,0.006h0.001l-0.891,0.979l-0.694,0.951l-0.513,0.848l-0.204,0.356l-0.104,0.142l-0.063,0.125l0.025-0.007l-0.665,3.304  c-0.011,0.06-0.05,0.111-0.109,0.134l-7.872,3.669l0.016,0.048l9.625,0.164C16.824,54.567,21.142,50.35,25.68,49.869z   M94.352,59.466l-1.076,0.284l-0.416,1.049l-0.186,0.503l1.068,0.143l1.802-2.054l0.035-0.035l0.825-0.527l-0.842,0.348  L94.352,59.466z M9.497,57.658L8.51,56.462l0.005,0.032L8.231,56.34c-0.029-0.015-0.026-0.05-0.044-0.073l-1.992,1.009  c0.166,0.292,0.324,0.45,0.706,0.572h2.747L9.497,57.658z M76.033,56.293l0.299-1.129l0.432-1.016l0.524-0.904l0.617-0.791  l0.669-0.697l0.71-0.595l0.73-0.504l0.75-0.408l0.729-0.328l0.691-0.256l0.636-0.186l0.242-0.032l-0.066-0.224l-0.067-0.182  l-0.575,0.098l-0.888,0.246l-0.972,0.357l-0.979,0.508l-0.481,0.294l-0.474,0.326l0.025,0.012l-0.028-0.01l-0.013,0.009l0.01-0.01  l-0.001-0.001l-0.651,0.621l-0.165,0.194l0.003,0.001l-0.21,0.268l-0.313,0.454l-0.367,0.642l-0.198,0.476l-0.118,0.335  c-0.034,0.069-0.104,0.123-0.182,0.123c-0.016,0-0.028-0.002-0.039-0.004l-6.469-1.205c-0.021,0.02-0.05,0.02-0.076,0.03  l-4.767,4.355l-1.024,0.96c-0.014,0.021-0.033,0.016-0.053,0.023l-0.028,0.026c-0.034,0.022-0.071,0.035-0.117,0.045l-3.77,0.333  l-0.028,0.05c-0.026,0.054-0.088,0.089-0.148,0.089l-21.498,1.915l1.296,0.439l2.338,0.734l22.385-0.102l0.368-0.021l0.311-0.046  l-0.028-0.022l0.004-0.002v-0.001l0.037-0.016l9.609-4.187c0.026-0.013,0.056-0.019,0.082-0.019c0.074,0,0.146,0.043,0.176,0.115  c0.014,0.027,0.016,0.056,0.016,0.081c0,0.074-0.043,0.145-0.113,0.177l-9.521,4.154l11.063-0.028l-0.313-1.42l-0.175-1.507v-1.387  L76.033,56.293z M38.673,43.58c0.025-0.017,0.052-0.024,0.081-0.022c0.042-0.002,0.083,0.017,0.122,0.047  c0.04,0.04,0.062,0.097,0.062,0.155c0,0.012,0,0.022-0.002,0.037l-0.612,2.504l-0.284,1.226l0.742-0.059l0.611-0.068l0.608-4.08  c0-0.077,0.054-0.128,0.111-0.151l0.854-0.35l0.922-0.316l0.986-0.308l1.067-0.277l2.287-0.479l2.471-0.36l2.605-0.234l2.698-0.062  l2.717,0.122l2.508,0.289c0.016-0.011,0.026-0.026,0.045-0.033c0.015-0.002,0.03-0.006,0.047-0.006c0.054,0,0.098,0.026,0.135,0.062  l0.555,0.036l0.738,0.062l0.852,0.103l0.943,0.143l1.035,0.184l1.099,0.215l2.369,0.543l2.491,0.685l2.533,0.819l2.471,0.953  l0.042,0.019l1.901-0.102l2.172-0.113l2.246-0.093l2.276-0.029l2.267,0.06l2.226,0.194l2.143,0.339l2.02,0.51  c0.095,0.021,0.152,0.105,0.15,0.19c0,0.015-0.002,0.027-0.002,0.043c-0.021,0.088-0.098,0.142-0.177,0.146l1.914,0.308l1.872,0.433  l0.698,0.149l-0.24-0.964c-0.004-0.015-0.006-0.029-0.006-0.045c0-0.047,0.013-0.102,0.056-0.139l0.21-0.164l-0.523-0.709  l-0.407-0.518l-1.247,0.289c-0.02,0.004-0.033,0.006-0.048,0.006c-0.072-0.002-0.135-0.045-0.174-0.105  c-0.013-0.027-0.021-0.058-0.021-0.089c0-0.05,0.017-0.104,0.058-0.141l1.736-1.614l-0.302,0.109  c-0.021,0.008-0.041,0.008-0.058,0.008c-0.056,0-0.105-0.022-0.146-0.056c-0.037-0.035-0.06-0.088-0.061-0.146l-2.208,0.698  c-0.015,0.002-0.028,0.002-0.043,0.002c-0.05,0-0.102-0.015-0.135-0.05c-0.043-0.033-0.066-0.089-0.066-0.146  c0-0.008-0.004-0.025,0.003-0.038l0.069-0.229l-1.769,0.292l-0.315,0.057l0.249,0.165c0.051,0.033,0.086,0.091,0.086,0.151  c0,0,0,0.017,0,0.021c0,0.07-0.037,0.134-0.099,0.169L89.14,44.75c-0.022,0.008-0.048,0.017-0.076,0.017  c-0.015,0-0.025-0.002-0.029-0.004l-1.64-0.132l-1.734-0.194l-3.608-0.564l-1.825-0.378l-1.823-0.43l-1.776-0.49l-1.702-0.564  l-0.759-0.275l-0.694-0.277l-0.757-0.267l-0.438-0.111l-0.251-0.077l-0.14-0.025l-0.796,0.499c-0.028,0.017-0.062,0.027-0.095,0.027  c-0.015,0-0.025-0.002-0.029-0.002l-1.536-0.186l-1.588-0.182l-3.31-0.35L61.1,40.485l-3.472-0.213l-3.463-0.103l-3.401,0.052  l-3.276,0.225l-1.557,0.194l-1.493,0.244l-0.79,0.205l-0.871,0.246l-1.873,0.573l-2.02,0.666l-2.14,0.734l-4.375,1.658l-2.111,0.858  l-1.519,0.625l-0.044,0.019l1.466,0.438L38.673,43.58z M94.554,52.169c-0.01,0.002-0.019,0-0.024,0  c-0.062,0-0.118-0.037-0.146-0.083c-0.023-0.028-0.033-0.066-0.033-0.102c0-0.028,0.006-0.06,0.019-0.084l1.266-2.845l0.651-1.507  l-2.19-0.586l-2.478-0.438l-2.53-0.277l-2.561-0.132l-2.54-0.011l-2.51,0.081l-2.428,0.153l-1.393,0.094l5.268,2.113l0.161-0.006  c0.043-0.001,0.083,0.014,0.116,0.037l0.587-0.109l0.978-0.06l1.019,0.05l1.037,0.175l1.006,0.246l0.957,0.349l0.882,0.44  l0.024,0.013l0.738,0.512c0.054,0.037,0.082,0.099,0.08,0.163c0,0.039-0.01,0.077-0.031,0.116c-0.041,0.054-0.103,0.08-0.165,0.08  c-0.041,0-0.08-0.012-0.115-0.03l-0.37-0.297l-0.336-0.232l-0.005,0.029l-0.012-0.007l-0.827-0.422l-0.909-0.335l-0.981-0.246  l-0.989-0.164l-0.991-0.051l-0.93,0.051l-0.466,0.087l0.201,0.484l0.948-0.04l1.262,0.062l1.286,0.194l0.638,0.176l0.639,0.236  l0.627,0.318l0.607,0.38l0.598,0.463l0.596,0.555l0.557,0.657l0.522,0.749l0.514,0.872l0.461,0.973  c0.015,0.026,0.015,0.054,0.015,0.072l-0.001,0.65l0.013,0.3l0.688,0.035l0.603,0.008l1.014-0.861l1.084-1.001l1.032-1.071  l0.538-0.641l0.338-0.436v-0.015L94.554,52.169z M13.506,59.82l3.593-1.674l0.654-3.254l0.014-0.047l0.165-0.308l0.216-0.381  l0.533-0.87l0.719-0.975l0.887-0.976l0.019-0.031l1.141-0.914l0.669-0.41l0.731-0.35l0.803-0.276l0.873-0.206l0.937-0.124  l0.545,0.021l0.087-0.002c0.033-0.022,0.071-0.037,0.112-0.037c0.029,0,0.06,0.006,0.09,0.022c0.005,0.002,0.007,0.008,0.011,0.01  l0.057-0.001l0.082-0.06l0.748-0.606l0.026-0.008l1.016-0.576l0.354-0.155l0.396-0.203l0.597-0.245l0.077-0.021l-0.18-0.055  l-0.363-0.108l-0.854-0.237l0.013,0.009l-2.59,0.572l-2.53,0.717l-2.57,0.889l-1.332,0.521l-0.709,0.271l-0.65,0.279l0.019,0.005  l0.007,0.002l-1.285,1.21L16.6,51.267l-5.285,2.893c-0.031,0.019-0.066,0.027-0.099,0.027c-0.004,0-0.008-0.003-0.012-0.003  l-0.181,0.1l-0.142,0.063c-0.022,0.011-0.043,0.012-0.065,0.012h-0.04c-0.008,0-0.015-0.006-0.022-0.007l-0.032,0.021l-0.652,0.489  l-0.35,0.28l-0.316,0.291l0.004,0.003l0.004-0.002L9.41,55.437l0.025,0.016l-0.051,0.061l0.234-0.08l0.035-0.01l6.024-1.004  c0.01-0.002,0.025-0.007,0.042-0.007c0.092,0,0.168,0.07,0.181,0.165c0.002,0.013,0.004,0.026,0.004,0.041  c0,0.091-0.072,0.165-0.163,0.182l-2.969,0.467L9.73,55.778l0.02,0.022l-0.783,0.277c-0.015,0.013-0.024,0.031-0.044,0.037  l-0.177,0.062c0.005,0.005,0.01,0.009,0.014,0.013l1.987,2.436l0.163,0.182l0.025,0.026l0.094,0.146  c0.011,0.021,0.023,0.045,0.023,0.07l0.031,0.222c0.002,0.015,0.004,0.027,0.004,0.037c0,0.035-0.015,0.062-0.029,0.089  l-0.124,0.214l-0.159,0.271c-0.002,0.044-0.039,0.058-0.041,0.064l-1.808,1.566l-0.271,0.241l0.69-0.03l1.86-0.851L13.506,59.82z   M16.354,50.938l-0.005-0.002l-0.031-0.007l0.427-0.406l-0.585,0.281l-1.617,0.921l-1.638,1.063l-0.286,0.191l1.262-0.679  L16.354,50.938z M71.048,50.784l0.178-0.204l1.784-1.718l1.27-1.069l0.401-0.344l0.059-0.043l0.046-0.039l1.043-0.771l-10.24,1.637  l-0.916,1.92l-0.474,1.031l5.44,1.085L71.048,50.784z M37.397,60.098l13.957-1.184l8.345-0.728l3.921-6.646l-2.686-0.593  l-4.278-0.855c-0.021-0.006-0.033-0.023-0.051-0.034l-21.898,2.64l1.477,4.1L37.397,60.098z M64.839,47.863l-2.637-1.898  l-1.458,0.116c-0.019,0.015-0.033,0.033-0.057,0.042c-0.017,0.004-0.033,0.006-0.047,0.006c-0.037,0-0.069-0.015-0.099-0.032  l-10.51,0.834l-7.988,0.653l-1.35,0.176v0c-0.013,0.002-0.023,0.002-0.033,0.002c-0.051,0-0.096-0.022-0.123-0.049  c-0.002-0.001-0.001-0.004-0.002-0.005l-2.682,0.22c-0.007,0.019-0.007,0.039-0.019,0.056l-3.197,4.26l22.053-2.59L64.839,47.863z   M37.315,60.692c-0.059,0-0.108-0.034-0.145-0.079c0,0-0.145-0.292-0.133-0.308l-2.798-7.634c-0.003-0.001-0.006-0.001-0.009-0.001  l-0.001-0.001c-0.001,0-0.001,0.001-0.002,0.001c-0.008,0-0.017,0.002-0.027,0.002c-0.018,0-0.029-0.014-0.045-0.02l-1,0.091  l-0.359,0.041l0.307,0.359l0.514,0.771l0.473,0.914l0.38,1.094v0.025l0.237,1.255v0.019l0.05,1.437l-0.05,0.81l-0.124,0.851  l-0.186,0.914L34.2,61.938l6.992-0.01C41.191,61.929,37.321,60.692,37.315,60.692z M34.258,52.111l2.905-4.024l-0.545,0.031  l-1.026-0.021l-1.898-0.172l-1.822-0.268l-0.946-0.146l-0.775-0.094l-0.199,0.065l-0.206,0.081l-0.42,0.165l-0.591,0.266  l-0.613,0.326l-0.84,0.529l-0.368,0.267L27,49.12l0.872,0.093l1.039,0.165l1.139,0.288l1.183,0.409l1.16,0.573l0.025,0.013  l1.038,0.74l0.021,0.021l0.728,0.761L34.258,52.111z M57.7,49.889l1.542,0.327l-0.19-0.132l-0.022-0.021l-0.173-0.173  c-0.024-0.025-0.037-0.049-0.05-0.074l-0.03-0.09c-0.007-0.021-0.009-0.039-0.009-0.058c0-0.001,0.001-0.003,0.001-0.005  L57.7,49.889z M65.525,47.817l10.51-1.67l-0.663-0.328l-0.952-0.444h-0.022c-0.056,0-0.102-0.03-0.136-0.072l-8.561,0.445  l-2.893,0.161l2.698,1.867C65.52,47.787,65.516,47.806,65.525,47.817z M64.818,48.898l0.27-0.574l-0.885,0.188  c0.021,0.029,0.046,0.057,0.045,0.096v0.037l-0.021,0.157l-0.013,0.047l-0.072,0.154l-0.226,0.458  c0.007,0.016,0.021,0.026,0.022,0.043c0.002,0.015,0.004,0.027,0.004,0.042c0,0.089-0.068,0.158-0.153,0.174l-0.325,0.663  l-0.164,0.321c-0.022,0.033-0.05,0.06-0.083,0.07L62.95,50.93c-0.021,0.009-0.043,0.022-0.072,0.022l-0.077,0.006l0.929,0.188  L64.818,48.898z M62.965,50.515l-0.015,0.003l0.005-0.008l0.022-0.003l0.021-0.012l0.066-0.125l-0.11,0.139l0.158-0.297l0.205-0.416  l-2.842,0.437l1.788,0.331l0.158,0.053l0.12,0.016l-0.021-0.029h0.004l0.018,0.029l0.007,0.001l0.144-0.014l0.097-0.01l-0.034-0.013  l0.16-0.055L62.965,50.515z M59.276,49.792l0.009-0.032l0.004,0.003v0l0.002,0.002l0.253,0.181l0.03,0.037l3.951-0.607l0.264-0.534  l0.068-0.069l0.022-0.048h-0.001l-0.03,0.012l0.002-0.005l-0.002,0.001l0.015-0.025l0.017-0.033l-0.035-0.019l-0.04-0.003  l-0.004,0.001l0.021,0.028l-0.201,0.031l-2.515,0.539l-1.922,0.437l0.02,0.033l0.065,0.065L59.276,49.792z M92.575,56.362  c-0.035-0.032-0.06-0.077-0.064-0.13l0.003-0.271c-0.517-2.525-2.239-4.611-4.541-5.641l-0.388-0.147l-0.612-0.163l-1.236-0.194  l-1.216-0.05l-1.189,0.05l-0.024,0.002c-0.031,0-0.058-0.013-0.084-0.028l-0.295,0.067l-0.611,0.163l-0.664,0.254l-0.706,0.315  l-0.018,0.01c-2.461,1.348-4.134,3.958-4.134,6.952c0,4.382,3.563,7.926,7.939,7.926c4.388,0,7.939-3.544,7.939-7.926  C92.674,57.146,92.634,56.751,92.575,56.362z M26.526,50.186c-4.068,0-7.378,3.304-7.378,7.365c0,4.072,3.31,7.366,7.378,7.366  c4.079,0,7.379-3.294,7.379-7.366C33.905,53.489,30.605,50.186,26.526,50.186z"></path></g></svg>